<svg xmlns="http://www.w3.org/2000/svg" viewBox="0 0 1301.01 422.07"><defs><style>.cls-1{fill:#eb0000;}.cls-2{fill:#005ff8;}.cls-3{fill:#04ac51;}.cls-4{fill:#f06500;}.cls-5{fill:#6f00fa;}.cls-6{fill:#fff;}</style></defs><g id="Camada_2" data-name="Camada 2"><g id="Beat_ID_Logos" data-name="Beat ID Logos"><g id="Beat_ID_Logo_White" data-name="Beat ID Logo White"><rect class="cls-1" y="342.52" width="399.04" height="79.55" rx="39.77"/><rect class="cls-2" x="438.81" y="342.52" width="293.21" height="79.55" rx="39.77"/><rect class="cls-3" x="771.8" y="342.52" width="211.02" height="79.55" rx="39.77"/><rect class="cls-4" x="1022.59" y="342.52" width="159.09" height="79.55" rx="39.77"/><rect class="cls-5" x="1221.46" y="342.52" width="79.55" height="79.55" rx="39.77"/><path class="cls-6" d="M221.41,227.74a62.83,62.83,0,0,1-20.36,23.09q-13.26,9.22-31.88,13.85a172.08,172.08,0,0,1-41.28,4.61H0V0H124.8q41.47,0,65.09,18.85t23.62,50.78v.77a66.11,66.11,0,0,1-2.87,20.38,63.25,63.25,0,0,1-7.65,16,60.67,60.67,0,0,1-11.08,12.5,74.17,74.17,0,0,1-13.57,9.23q23.35,8.87,36.77,24t13.4,42.12v.77Q228.51,213.9,221.41,227.74ZM155,79.64q0-13.47-10-20.58t-28.85-7.12H57.7v56.94h54.63q19.62,0,31.16-6.74T155,80.41Zm15,107.71q0-13.46-10.39-21.35t-33.47-7.88H57.7v59.24H128.1q19.62,0,30.78-7.12T170,188.12Z"/><path class="cls-6" d="M463.75,179.27c-.14,2.06-.33,4.49-.58,7.31H319.68q4.23,20,17.5,30.2T370.07,227a65.06,65.06,0,0,0,26.16-5q11.55-5,23.85-16.15l33.47,29.62a103.68,103.68,0,0,1-35.39,28.27q-20.78,10.2-48.86,10.2a117.47,117.47,0,0,1-42.89-7.7,99.14,99.14,0,0,1-34.24-21.92,101.31,101.31,0,0,1-22.5-33.66q-8.09-19.42-8.08-43.28v-.77a115.36,115.36,0,0,1,7.5-41.55,105.63,105.63,0,0,1,21-34.24,98.53,98.53,0,0,1,32.12-23.08q18.65-8.46,41.35-8.46,25.77,0,44.63,9.23a90.86,90.86,0,0,1,31.35,24.81A103.26,103.26,0,0,1,458,129.07a147.82,147.82,0,0,1,6,42.12V172C463.94,174.79,463.87,177.22,463.75,179.27Zm-70.6-61Q382,106.18,363.53,106.18t-29.81,11.93Q322.36,130,318.91,150H407Q404.31,130.42,393.15,118.3Z"/><path class="cls-6" d="M630.49,269.29V247a81.21,81.21,0,0,1-25.78,19q-15,7.11-36.54,7.12a91.56,91.56,0,0,1-27.51-4A64.36,64.36,0,0,1,518.16,257,58,58,0,0,1,503,237.17q-5.58-11.73-5.58-27.12v-.77q0-16.92,6.16-29.24a56.2,56.2,0,0,1,17.12-20.39,77.09,77.09,0,0,1,26.16-12.12,131,131,0,0,1,33.66-4A143.9,143.9,0,0,1,608,145.8,173,173,0,0,1,630.87,152V148.5q0-18.47-11.15-28.09t-33.09-9.61a137.6,137.6,0,0,0-29.81,2.88A201.31,201.31,0,0,0,529.7,122L515.08,77.33A229.93,229.93,0,0,1,550.47,65.4q18.46-4.62,44.62-4.61,48.09,0,70,23.46T687,149.65V269.29Zm1.15-83.09a89.29,89.29,0,0,0-17.12-5.58,92.09,92.09,0,0,0-20.19-2.12q-18.86,0-29.63,7.31T553.93,207v.77q0,11.92,8.85,18.46t23.08,6.54q20.77,0,33.28-10t12.5-26.16Z"/><path class="cls-6" d="M826,269.48a91.88,91.88,0,0,1-25.77,3.27,96.16,96.16,0,0,1-24.43-2.88,43.49,43.49,0,0,1-18.85-10.2,48.78,48.78,0,0,1-12.31-19q-4.43-11.73-4.43-29.81V113.1H715.56v-50h24.62V10.39h58.48v52.7h48.47v50H798.66v88.1q0,20,18.85,20a59.5,59.5,0,0,0,28.85-7.31v46.94A90.79,90.79,0,0,1,826,269.48Z"/><path class="cls-6" d="M934.39,269.29V0h59.24V269.29Z"/><path class="cls-6" d="M1290.62,187.73a125.47,125.47,0,0,1-29.43,42.7,139.2,139.2,0,0,1-45.39,28.47q-26.37,10.39-57.9,10.39h-105V0h105q31.53,0,57.89,10.19a136.9,136.9,0,0,1,45.4,28.28A126.08,126.08,0,0,1,1290.62,81,133.86,133.86,0,0,1,1301,133.87v.77A135.2,135.2,0,0,1,1290.62,187.73Zm-51.55-53.09a87.91,87.91,0,0,0-6-32.7,76.88,76.88,0,0,0-16.55-25.77A73.33,73.33,0,0,0,1191,59.44a88.71,88.71,0,0,0-33.08-6h-45.78V215.81h45.78A91.37,91.37,0,0,0,1191,210a71,71,0,0,0,25.58-16.54,77.76,77.76,0,0,0,16.55-25.39,85.92,85.92,0,0,0,6-32.7Z"/></g></g></g></svg>