<svg fill="none" xmlns="http://www.w3.org/2000/svg" viewBox="0 0 64 64">
  <path d="M0 28.8C0 18.72 0 13.679 1.962 9.828a18 18 0 0 1 7.866-7.866C13.678 0 18.72 0 28.8 0h6.4c10.08 0 15.121 0 18.972 1.962a18 18 0 0 1 7.866 7.866C64 13.678 64 18.72 64 28.8v6.4c0 10.08 0 15.121-1.962 18.972a18 18 0 0 1-7.866 7.866C50.322 64 45.28 64 35.2 64h-6.4c-10.08 0-15.121 0-18.972-1.962a18 18 0 0 1-7.866-7.866C0 50.322 0 45.28 0 35.2v-6.4Z" fill="url(#a)"/>
  <path d="M32.643 16.386a1.577 1.577 0 0 0-1.242-.018 1.61 1.61 0 0 0-.547.37l-5.76 5.93a1.703 1.703 0 0 0 0 2.358 1.587 1.587 0 0 0 2.291 0l2.995-3.082v15.244c0 .921.725 1.668 1.62 1.668.895 0 1.62-.747 1.62-1.668V21.944l2.994 3.082a1.587 1.587 0 0 0 2.291 0 1.702 1.702 0 0 0 0-2.358l-5.752-5.922a1.65 1.65 0 0 0-.51-.36Z" fill="url(#b)"/>
  <path d="M17.87 35.52c.895 0 1.62.747 1.62 1.668v5.93c0 .344.133.674.369.917s.557.38.891.38h22.5c.334 0 .655-.137.89-.38.237-.243.37-.573.37-.917v-5.93c0-.92.725-1.667 1.62-1.667.895 0 1.62.746 1.62 1.667v5.93a4.702 4.702 0 0 1-1.318 3.275 4.435 4.435 0 0 1-3.182 1.357h-22.5a4.436 4.436 0 0 1-3.182-1.357 4.702 4.702 0 0 1-1.318-3.275v-5.93c0-.92.725-1.667 1.62-1.667Z" fill="url(#c)"/>
  <path d="m1.962 54.172.89-.454-.89.454Zm60.076 0 .891.454-.89-.454Zm-7.866 7.866.454.891-.454-.89Zm7.866-52.21-.89.454.89-.454ZM9.828 1.962l-.454-.891.454.89ZM28.8 1h6.4v-2h-6.4v2ZM63 28.8v6.4h2v-6.4h-2ZM35.2 63h-6.4v2h6.4v-2ZM1 35.2v-6.4h-2v6.4h2ZM28.8 63c-5.057 0-8.79 0-11.74-.242-2.94-.24-5.017-.714-6.778-1.61l-.908 1.781c2.09 1.065 4.459 1.572 7.522 1.822 3.052.25 6.88.249 11.904.249v-2ZM-1 35.2c0 5.024 0 8.852.249 11.904.25 3.063.757 5.432 1.822 7.522l1.782-.908c-.897-1.76-1.37-3.837-1.611-6.777C1 43.99 1 40.257 1 35.2h-2Zm11.282 25.947a17 17 0 0 1-7.43-7.43l-1.781.909a19 19 0 0 0 8.303 8.303l.908-1.782ZM63 35.2c0 5.057 0 8.79-.242 11.74-.24 2.94-.714 5.017-1.61 6.778l1.781.908c1.065-2.09 1.572-4.459 1.822-7.522.25-3.052.249-6.88.249-11.904h-2ZM35.2 65c5.024 0 8.852 0 11.904-.249 3.063-.25 5.432-.757 7.522-1.822l-.908-1.782c-1.76.897-3.837 1.37-6.777 1.611C43.99 63 40.257 63 35.2 63v2Zm25.947-11.282a17 17 0 0 1-7.43 7.43l.909 1.781a19 19 0 0 0 8.303-8.303l-1.782-.908ZM35.2 1c5.057 0 8.79 0 11.74.242 2.94.24 5.017.714 6.778 1.61l.908-1.781C52.536.006 50.167-.501 47.104-.751 44.052-1.001 40.224-1 35.2-1v2ZM65 28.8c0-5.024 0-8.852-.249-11.904-.25-3.063-.757-5.432-1.822-7.522l-1.782.908c.897 1.76 1.37 3.837 1.611 6.777C63 20.01 63 23.743 63 28.8h2ZM53.718 2.853a17 17 0 0 1 7.43 7.43l1.781-.909a19 19 0 0 0-8.303-8.303l-.908 1.782ZM28.8-1c-5.024 0-8.852 0-11.904.249-3.063.25-5.432.757-7.522 1.822l.908 1.782c1.76-.897 3.837-1.37 6.777-1.611C20.01 1 23.743 1 28.8 1v-2ZM1 28.8c0-5.057 0-8.79.242-11.74.24-2.94.714-5.017 1.61-6.778l-1.781-.908c-1.065 2.09-1.572 4.459-1.822 7.522C-1.001 19.948-1 23.776-1 28.8h2ZM9.374 1.07a19 19 0 0 0-8.303 8.304l1.782.908a17 17 0 0 1 7.43-7.43l-.909-1.781Z" fill="url(#d)"/>
  <defs>
    <linearGradient id="a" x1="-5.519" y1="3.26" x2="1.001" y2="64.718" gradientUnits="userSpaceOnUse">
      <stop stop-color="#558DFF"/>
      <stop offset="1" stop-color="#643FFF"/>
    </linearGradient>
    <linearGradient id="b" x1="27.45" y1="3.974" x2="2.899" y2="33.813" gradientUnits="userSpaceOnUse">
      <stop stop-color="#fff"/>
      <stop offset="1" stop-color="#AABEFF"/>
    </linearGradient>
    <linearGradient id="c" x1="27.45" y1="3.974" x2="2.899" y2="33.813" gradientUnits="userSpaceOnUse">
      <stop stop-color="#fff"/>
      <stop offset="1" stop-color="#AABEFF"/>
    </linearGradient>
    <linearGradient id="d" x1="63.721" y1="64" x2="63.721" y2=".558" gradientUnits="userSpaceOnUse">
      <stop stop-color="#fff" stop-opacity=".08"/>
      <stop offset="1" stop-color="#fff" stop-opacity=".32"/>
    </linearGradient>
  </defs>
</svg>
