<svg width="211" height="32" viewBox="0 0 211 32" fill="none" xmlns="http://www.w3.org/2000/svg">
<path fill-rule="evenodd" clip-rule="evenodd" d="M16.2214 0C7.26275 0 0 7.16339 0 15.9997C0 24.837 7.26275 32 16.2214 32C25.1804 32 32.4428 24.837 32.4428 15.9997C32.4428 7.16396 25.1808 0.00076424 16.2212 0.00076424L16.2214 0ZM23.6604 23.0762C23.3691 23.5475 22.7465 23.6952 22.2702 23.408C18.461 21.1117 13.6664 20.593 8.01993 21.8652C7.47582 21.9883 6.93345 21.6518 6.80949 21.1153C6.68493 20.5786 7.02449 20.0437 7.56996 19.9214C13.7491 18.528 19.0495 19.1277 23.3251 21.7048C23.8016 21.9933 23.9529 22.6062 23.6604 23.0762ZM23.9062 19.131C24.5007 19.4915 25.279 19.3073 25.6459 18.7202C26.012 18.1344 25.8239 17.3666 25.2292 17.0055C20.222 13.9705 12.8984 13.1164 7.00725 14.8795C6.33956 15.0801 5.96241 15.7756 6.16386 16.4353C6.36687 17.0939 7.0733 17.4657 7.74217 17.2664C12.8995 15.7223 19.5469 16.4879 23.9062 19.131ZM25.8163 14.1837C20.5875 11.1208 11.9626 10.8392 6.97101 12.3335C6.16947 12.5732 5.32182 12.1269 5.07892 11.3363C4.83601 10.5453 5.28812 9.70983 6.09024 9.46948C11.8202 7.75377 21.3456 8.08525 27.3648 11.6097C28.0858 12.0318 28.3223 12.9502 27.895 13.6604C27.4688 14.3715 26.535 14.6059 25.8163 14.1837ZM40.8337 12.6779C40.8337 13.6495 41.3323 14.1119 44.133 14.7706L44.1389 14.7731C47.55 15.5916 48.9427 16.8622 48.9369 19.1568C48.9369 21.875 46.8312 23.6312 43.5725 23.6312C41.2689 23.6312 39.1343 22.824 37.3987 21.2957C37.3243 21.2311 37.3162 21.1195 37.3805 21.0448L38.9139 19.2449C38.9453 19.2076 38.9904 19.1851 39.0398 19.1811C39.0867 19.1784 39.1374 19.1927 39.1744 19.2242C40.6661 20.4984 41.9996 21.0416 43.6345 21.0416C45.1064 21.0416 46.0211 20.4134 46.0211 19.4029C46.0211 18.4909 45.5688 17.9808 42.8887 17.3719C39.7398 16.6212 37.9177 15.6487 37.9177 12.9023C37.9177 10.3411 40.03 8.55106 43.0541 8.55106C45.1109 8.55106 46.8705 9.15233 48.4331 10.3891C48.5088 10.4489 48.5241 10.5568 48.468 10.6351L47.1004 12.5366C47.0717 12.5765 47.0283 12.6031 46.9793 12.6103C46.9303 12.6179 46.8805 12.6063 46.8408 12.5771C45.5279 11.6115 44.2756 11.1424 43.0126 11.1424C41.7098 11.1424 40.8337 11.7601 40.8337 12.6779ZM56.3093 12.0461C54.8968 12.0461 53.7383 12.5948 52.7829 13.7192V12.4536C52.7829 12.3537 52.7008 12.2723 52.5997 12.2723H50.0918C49.9905 12.2723 49.9085 12.3537 49.9085 12.4536V26.516C49.9085 26.6159 49.9905 26.6973 50.0918 26.6973H52.5997C52.7008 26.6973 52.7829 26.6159 52.7829 26.516V22.0771C53.7385 23.1348 54.8972 23.6517 56.3093 23.6517C58.9338 23.6517 61.5907 21.6589 61.5907 17.8496C61.5945 14.0393 58.9369 12.0459 56.3122 12.0459L56.3093 12.0461ZM55.7284 21.143C57.463 21.143 58.6744 19.7894 58.6744 17.8496C58.6744 15.9409 57.4349 14.5559 55.7284 14.5561C54.0135 14.5561 52.72 15.9714 52.72 17.8496C52.72 19.7279 54.0135 21.143 55.7284 21.143ZM68.4003 12.0461C65.0204 12.0461 62.3724 14.6132 62.3724 17.891C62.3724 21.1331 65.0022 23.6732 68.3589 23.6732C71.7508 23.6732 74.4069 21.1148 74.4069 17.8495C74.4069 14.5956 71.7689 12.0461 68.4003 12.0461ZM65.2472 17.8486C65.2472 19.7376 66.6026 21.1623 68.4003 21.1623C70.2154 21.1623 71.5327 19.7867 71.5327 17.89C71.5327 15.9997 70.1683 14.575 68.3589 14.575C66.5557 14.575 65.2472 15.9516 65.2472 17.8486ZM81.6245 12.2723H78.8648V9.48936C78.8648 9.38963 78.7831 9.30823 78.6818 9.30823H76.1743C76.0728 9.30823 75.9905 9.38963 75.9905 9.48936V12.2723H74.7846C74.6837 12.2723 74.602 12.3537 74.602 12.4536V14.5796C74.602 14.6793 74.6837 14.7609 74.7846 14.7609H75.9905V20.2617C75.9905 22.4847 77.1122 23.6117 79.3245 23.6117C80.2241 23.6117 80.9704 23.4285 81.6738 23.0351C81.7309 23.0036 81.7663 22.9428 81.7663 22.8783V20.8538C81.7663 20.7913 81.7334 20.7323 81.6792 20.6996C81.6245 20.6658 81.5565 20.6641 81.5006 20.6914C81.0175 20.9312 80.5504 21.0418 80.0284 21.0418C79.2238 21.0418 78.8648 20.6814 78.8648 19.8738V14.7618H81.6245C81.7258 14.7618 81.8074 14.6805 81.8074 14.5805V12.4548C81.8113 12.3549 81.7299 12.2735 81.6273 12.2735L81.6245 12.2723ZM91.24 11.9414V12.2832L91.2395 12.2838H95.5242C95.6002 12.2838 95.6687 12.3302 95.6954 12.4003L98.6248 19.9403L101.299 12.4053C101.325 12.3329 101.395 12.2838 101.473 12.2838H104.084C104.145 12.2838 104.2 12.3134 104.235 12.3625C104.269 12.412 104.276 12.475 104.254 12.5308L99.9033 23.6199C99.001 25.9088 97.9775 26.7596 96.1257 26.7596C95.1356 26.7596 94.3346 26.5573 93.4473 26.0833C93.3625 26.0382 93.3278 25.9362 93.3683 25.8492L94.2182 24.0099C94.2386 23.964 94.2789 23.9289 94.3267 23.9123C94.3749 23.8975 94.428 23.9015 94.4728 23.9258C94.9485 24.1826 95.4138 24.3127 95.8556 24.3127C96.4022 24.3127 96.8027 24.1354 97.2098 23.2441L93.623 14.7615H91.2815V23.2456C91.2815 23.3456 91.199 23.4269 91.0977 23.4269H88.5898C88.4887 23.4269 88.4069 23.3456 88.4069 23.2456V14.7609H87.2021C87.101 14.7609 87.018 14.6793 87.018 14.5796V12.4427C87.018 12.343 87.101 12.2616 87.2021 12.2616H88.4069V11.7381C88.4069 9.30535 89.6313 8.01875 91.9476 8.01875C92.8995 8.01875 93.5352 8.16835 94.0321 8.31413C94.11 8.33764 94.1619 8.40813 94.1619 8.48781V10.5723C94.1619 10.6304 94.1346 10.6852 94.0861 10.7194C94.0391 10.7536 93.9786 10.7626 93.9207 10.7446C93.4504 10.5899 93.0304 10.4874 92.5076 10.4874C91.6309 10.4874 91.24 10.9359 91.24 11.9414ZM85.6652 12.2723H83.1573C83.056 12.2723 82.9735 12.3537 82.9735 12.4536V23.2456C82.9735 23.3456 83.056 23.427 83.1573 23.427H85.6652C85.7663 23.427 85.849 23.3456 85.849 23.2456V12.4544C85.8491 12.4062 85.8298 12.36 85.7952 12.326C85.7607 12.292 85.7138 12.2729 85.665 12.2731L85.6652 12.2723ZM82.6258 9.13169C82.6258 8.15174 83.432 7.35847 84.4255 7.35847H84.4265C85.4182 7.35847 86.224 8.15194 86.224 9.13169C86.224 10.1122 85.4186 10.9065 84.4255 10.9065C83.4322 10.9065 82.6258 10.1122 82.6258 9.13169ZM106.395 15.7422C105.403 15.7421 104.631 14.9559 104.631 14.0012C104.631 13.0465 105.413 12.2513 106.405 12.2513C107.397 12.2513 108.17 13.0373 108.17 13.9913C108.17 14.946 107.387 15.7422 106.395 15.7422ZM104.817 14.0012C104.817 13.1332 105.501 12.4244 106.405 12.4244H106.406C107.305 12.4244 107.985 13.1237 107.985 13.9913C107.985 14.8599 107.3 15.5681 106.396 15.5681C105.496 15.5681 104.817 14.8688 104.817 14.0012ZM106.796 14.1703L107.296 14.8597H106.875L106.425 14.2273H106.039V14.8597H105.687V13.0324H106.513C106.943 13.0324 107.226 13.2496 107.226 13.6153C107.228 13.9149 107.052 14.0979 106.798 14.1703L106.796 14.1703ZM106.039 13.3459H106.498C106.727 13.3459 106.864 13.4466 106.864 13.6346C106.864 13.8132 106.727 13.9239 106.498 13.9239H106.039V13.3459Z" fill="white"/>
<path d="M118.962 18.4836H123.714C124.714 18.4836 125.591 18.2788 126.344 17.869C127.104 17.4524 127.699 16.8725 128.129 16.1295C128.558 15.3795 128.773 14.5149 128.773 13.5357V13.5149C128.773 12.5357 128.558 11.6781 128.129 10.942C127.699 10.1989 127.104 9.62252 126.344 9.2128C125.591 8.79613 124.714 8.5878 123.714 8.5878H118.962V10.5565H123.123C124.151 10.5565 124.947 10.817 125.51 11.3378C126.08 11.8586 126.365 12.5913 126.365 13.5357V13.5565C126.365 14.4871 126.08 15.2163 125.51 15.744C124.947 16.2649 124.151 16.5253 123.123 16.5253H118.962V18.4836ZM117.779 23.619H120.145V8.5878H117.779V23.619Z" fill="white"/>
<path d="M136.102 23.8378C137.229 23.8378 138.193 23.6017 138.996 23.1295C139.806 22.6572 140.429 21.9836 140.865 21.1086C141.309 20.2267 141.531 19.1815 141.531 17.9732V17.9524C141.531 16.7371 141.309 15.692 140.865 14.817C140.429 13.935 139.806 13.2614 138.996 12.7961C138.186 12.3239 137.222 12.0878 136.102 12.0878C134.99 12.0878 134.025 12.3239 133.209 12.7961C132.399 13.2684 131.772 13.942 131.329 14.817C130.892 15.692 130.674 16.7371 130.674 17.9524V17.9732C130.674 19.1815 130.892 20.2267 131.329 21.1086C131.765 21.9836 132.388 22.6572 133.198 23.1295C134.015 23.6017 134.983 23.8378 136.102 23.8378ZM136.102 21.942C135.448 21.942 134.891 21.7857 134.434 21.4732C133.976 21.1538 133.624 20.6989 133.378 20.1086C133.138 19.5184 133.019 18.8065 133.019 17.9732V17.9524C133.019 17.1121 133.138 16.3968 133.378 15.8065C133.624 15.2163 133.976 14.7649 134.434 14.4524C134.891 14.1329 135.448 13.9732 136.102 13.9732C136.757 13.9732 137.313 14.1329 137.771 14.4524C138.229 14.7649 138.577 15.2163 138.816 15.8065C139.056 16.3968 139.176 17.1121 139.176 17.9524V17.9732C139.176 18.8065 139.056 19.5184 138.816 20.1086C138.577 20.6989 138.229 21.1538 137.771 21.4732C137.313 21.7857 136.757 21.942 136.102 21.942Z" fill="white"/>
<path d="M148.437 23.8065C149.247 23.8065 149.955 23.6329 150.56 23.2857C151.166 22.9385 151.634 22.4559 151.965 21.8378H152.134V23.619H154.436V7.86905H152.134V14.0982H151.965C151.662 13.4871 151.194 13.0045 150.56 12.6503C149.934 12.2892 149.226 12.1086 148.437 12.1086C147.466 12.1086 146.624 12.3482 145.913 12.8274C145.202 13.2996 144.653 13.9732 144.266 14.8482C143.879 15.7232 143.685 16.7579 143.685 17.9524V17.9732C143.685 19.1607 143.879 20.192 144.266 21.067C144.66 21.942 145.213 22.619 145.924 23.0982C146.642 23.5704 147.48 23.8065 148.437 23.8065ZM149.092 21.869C148.459 21.869 147.909 21.7128 147.445 21.4003C146.987 21.0878 146.635 20.6399 146.389 20.0565C146.149 19.4732 146.03 18.7788 146.03 17.9732V17.9524C146.03 17.1399 146.149 16.4454 146.389 15.869C146.635 15.2857 146.987 14.8378 147.445 14.5253C147.909 14.2059 148.459 14.0461 149.092 14.0461C149.726 14.0461 150.272 14.2059 150.729 14.5253C151.194 14.8378 151.549 15.2857 151.796 15.869C152.049 16.4524 152.176 17.1468 152.176 17.9524V17.9732C152.176 18.7718 152.053 19.4663 151.806 20.0565C151.56 20.6399 151.204 21.0878 150.74 21.4003C150.275 21.7128 149.726 21.869 149.092 21.869Z" fill="white"/>
<path d="M162.663 23.8378C163.613 23.8378 164.427 23.6815 165.102 23.369C165.785 23.0496 166.331 22.6121 166.739 22.0565C167.148 21.501 167.419 20.8552 167.553 20.119L167.574 20.0253L165.377 20.0357L165.356 20.0878C165.173 20.6989 164.856 21.1607 164.405 21.4732C163.962 21.7857 163.381 21.942 162.663 21.942C162.036 21.942 161.494 21.7822 161.037 21.4628C160.579 21.1364 160.227 20.6746 159.98 20.0774C159.734 19.4802 159.611 18.7649 159.611 17.9315V17.9107C159.611 17.0982 159.731 16.3968 159.97 15.8065C160.216 15.2163 160.568 14.7649 161.026 14.4524C161.484 14.1329 162.029 13.9732 162.663 13.9732C163.423 13.9732 164.032 14.1607 164.49 14.5357C164.948 14.9038 165.24 15.3656 165.367 15.9211L165.377 15.942H167.584L167.574 15.8899C167.468 15.1607 167.208 14.5114 166.792 13.942C166.384 13.3656 165.831 12.9142 165.134 12.5878C164.444 12.2545 163.617 12.0878 162.652 12.0878C161.54 12.0878 160.579 12.3239 159.769 12.7961C158.967 13.2684 158.347 13.9385 157.911 14.8065C157.481 15.6746 157.266 16.7093 157.266 17.9107V17.9315C157.266 19.1538 157.485 20.2059 157.921 21.0878C158.358 21.9697 158.977 22.6503 159.78 23.1295C160.589 23.6017 161.551 23.8378 162.663 23.8378Z" fill="white"/>
<path d="M173.319 23.8065C173.826 23.8065 174.294 23.7371 174.723 23.5982C175.153 23.4593 175.537 23.2579 175.875 22.994C176.213 22.7232 176.494 22.3968 176.719 22.0149H176.888V23.619H179.17V15.8795C179.17 15.0878 178.994 14.4107 178.642 13.8482C178.297 13.2788 177.786 12.8447 177.11 12.5461C176.441 12.2406 175.625 12.0878 174.66 12.0878C173.794 12.0878 173.023 12.2163 172.347 12.4732C171.678 12.7302 171.136 13.0913 170.721 13.5565C170.313 14.0149 170.063 14.5565 169.971 15.1815L169.96 15.2545H172.168L172.189 15.2232C172.323 14.8204 172.59 14.5079 172.991 14.2857C173.4 14.0635 173.924 13.9524 174.565 13.9524C175.332 13.9524 175.91 14.119 176.297 14.4524C176.691 14.7788 176.888 15.2545 176.888 15.8795V19.442C176.888 19.9281 176.762 20.3656 176.508 20.7545C176.255 21.1364 175.903 21.442 175.452 21.6711C175.009 21.8934 174.502 22.0045 173.931 22.0045C173.319 22.0045 172.812 21.8586 172.411 21.567C172.009 21.2684 171.809 20.8621 171.809 20.3482V20.3274C171.809 19.8204 171.995 19.4281 172.368 19.1503C172.742 18.8656 173.322 18.6989 174.111 18.6503L178.029 18.4003V16.8065L173.794 17.0565C172.428 17.1399 171.372 17.4697 170.626 18.0461C169.887 18.6156 169.517 19.4072 169.517 20.4211V20.442C169.517 21.1225 169.682 21.7163 170.013 22.2232C170.344 22.7302 170.795 23.1225 171.365 23.4003C171.942 23.6711 172.594 23.8065 173.319 23.8065Z" fill="white"/>
<path d="M186.573 23.8378C187.488 23.8378 188.301 23.692 189.012 23.4003C189.73 23.1017 190.297 22.6885 190.713 22.1607C191.128 21.626 191.336 21.0114 191.336 20.317V20.2961C191.336 19.4767 191.065 18.8239 190.522 18.3378C189.987 17.8517 189.171 17.4802 188.072 17.2232L186.245 16.817C185.605 16.6642 185.143 16.4732 184.862 16.244C184.58 16.0149 184.439 15.7232 184.439 15.369V15.3482C184.439 15.0427 184.531 14.7788 184.714 14.5565C184.904 14.3274 185.161 14.1503 185.485 14.0253C185.809 13.8934 186.178 13.8274 186.594 13.8274C187.242 13.8274 187.763 13.9593 188.157 14.2232C188.558 14.4871 188.812 14.817 188.917 15.2128V15.2336H191.114V15.2232C191.043 14.6052 190.818 14.0635 190.438 13.5982C190.058 13.126 189.54 12.7579 188.886 12.494C188.238 12.2232 187.477 12.0878 186.604 12.0878C185.738 12.0878 184.967 12.2336 184.292 12.5253C183.623 12.81 183.098 13.2093 182.718 13.7232C182.338 14.2302 182.148 14.8135 182.148 15.4732V15.4836C182.148 16.31 182.405 16.9767 182.919 17.4836C183.44 17.9836 184.239 18.3552 185.316 18.5982L187.154 19.0149C187.815 19.1677 188.291 19.3656 188.579 19.6086C188.868 19.8517 189.012 20.1503 189.012 20.5045V20.5253C189.012 20.8309 188.91 21.1017 188.706 21.3378C188.502 21.5739 188.22 21.7579 187.861 21.8899C187.509 22.0218 187.097 22.0878 186.626 22.0878C185.943 22.0878 185.393 21.9559 184.978 21.692C184.563 21.4281 184.281 21.0843 184.133 20.6607V20.6399H181.831V20.6607C181.901 21.2927 182.137 21.8482 182.538 22.3274C182.94 22.7996 183.482 23.1711 184.165 23.442C184.848 23.7059 185.65 23.8378 186.573 23.8378Z" fill="white"/>
<path d="M198.306 23.692C198.531 23.692 198.749 23.6781 198.961 23.6503C199.172 23.6295 199.369 23.6052 199.552 23.5774V21.7649C199.39 21.7788 199.246 21.7892 199.119 21.7961C198.999 21.8031 198.855 21.8065 198.686 21.8065C198.116 21.8065 197.707 21.6746 197.461 21.4107C197.215 21.1399 197.091 20.6989 197.091 20.0878V14.0878H199.552V12.3065H197.091V9.45238H194.747V12.3065H192.951V14.0878H194.747V20.6399C194.747 21.7232 195.025 22.5045 195.581 22.9836C196.144 23.4559 197.053 23.692 198.306 23.692Z" fill="white"/>
<path d="M206.237 23.8378C207.152 23.8378 207.965 23.692 208.677 23.4003C209.395 23.1017 209.962 22.6885 210.377 22.1607C210.792 21.626 211 21.0114 211 20.317V20.2961C211 19.4767 210.729 18.8239 210.187 18.3378C209.652 17.8517 208.835 17.4802 207.737 17.2232L205.91 16.817C205.269 16.6642 204.808 16.4732 204.526 16.244C204.245 16.0149 204.104 15.7232 204.104 15.369V15.3482C204.104 15.0427 204.195 14.7788 204.378 14.5565C204.568 14.3274 204.825 14.1503 205.149 14.0253C205.473 13.8934 205.843 13.8274 206.258 13.8274C206.906 13.8274 207.427 13.9593 207.821 14.2232C208.222 14.4871 208.476 14.817 208.582 15.2128V15.2336H210.778V15.2232C210.708 14.6052 210.483 14.0635 210.102 13.5982C209.722 13.126 209.205 12.7579 208.55 12.494C207.902 12.2232 207.142 12.0878 206.269 12.0878C205.403 12.0878 204.632 12.2336 203.956 12.5253C203.287 12.81 202.763 13.2093 202.382 13.7232C202.002 14.2302 201.812 14.8135 201.812 15.4732V15.4836C201.812 16.31 202.069 16.9767 202.583 17.4836C203.104 17.9836 203.903 18.3552 204.98 18.5982L206.818 19.0149C207.48 19.1677 207.955 19.3656 208.244 19.6086C208.532 19.8517 208.677 20.1503 208.677 20.5045V20.5253C208.677 20.8309 208.575 21.1017 208.37 21.3378C208.166 21.5739 207.885 21.7579 207.525 21.8899C207.173 22.0218 206.762 22.0878 206.29 22.0878C205.607 22.0878 205.058 21.9559 204.642 21.692C204.227 21.4281 203.945 21.0843 203.797 20.6607V20.6399H201.495V20.6607C201.566 21.2927 201.801 21.8482 202.203 22.3274C202.604 22.7996 203.146 23.1711 203.829 23.442C204.512 23.7059 205.315 23.8378 206.237 23.8378Z" fill="white"/>
</svg>
