<svg width="219" height="146" viewBox="0 0 219 146" fill="none" xmlns="http://www.w3.org/2000/svg">
<path d="M66.997 70.327C66.813 70.327 66.667 70.465 66.644 70.663L66 75.438L66.644 80.13C66.667 80.328 66.813 80.466 66.997 80.466C67.174 80.466 67.319 80.329 67.347 80.132V80.131V80.132L68.11 75.438L67.348 70.662C67.32 70.465 67.174 70.327 66.997 70.327V70.327ZM70.616 67.718C70.586 67.513 70.435 67.371 70.249 67.371C70.063 67.371 69.909 67.517 69.883 67.718L69.018 75.438L69.883 82.987C69.908 83.189 70.062 83.335 70.249 83.335C70.434 83.335 70.584 83.193 70.615 82.989L71.599 75.438L70.616 67.718ZM84.247 60.598C84.0748 60.5994 83.9098 60.6669 83.786 60.7866C83.6622 60.9063 83.5892 61.069 83.582 61.241L82.893 75.444L83.582 84.623C83.6 84.981 83.892 85.264 84.247 85.264C84.4192 85.2619 84.584 85.1942 84.708 85.0747C84.8319 84.9552 84.9056 84.793 84.914 84.621V84.624L85.692 75.444L84.914 61.242C84.9061 61.0697 84.8326 60.9069 84.7086 60.787C84.5846 60.6671 84.4195 60.5991 84.247 60.597V60.598ZM77.192 65.533C77.0587 65.5344 76.931 65.5866 76.8349 65.6789C76.7388 65.7713 76.6816 65.8969 76.675 66.03L75.9 75.44L76.676 84.545C76.697 84.827 76.92 85.04 77.193 85.04C77.463 85.04 77.685 84.827 77.709 84.545L78.591 75.44L77.709 66.028C77.7012 65.8957 77.6437 65.7713 77.548 65.6797C77.4523 65.5881 77.3255 65.536 77.193 65.534L77.192 65.533ZM91.417 85.263C91.857 85.263 92.215 84.917 92.233 84.473L92.909 75.449L92.234 56.539C92.2263 56.3274 92.1368 56.127 91.9843 55.9801C91.8318 55.8333 91.6283 55.7513 91.4165 55.7516C91.2048 55.7518 91.0014 55.8343 90.8493 55.9815C90.6972 56.1288 90.6081 56.3294 90.601 56.541L90.002 75.448L90.602 84.476C90.616 84.916 90.974 85.264 91.417 85.264V85.263ZM106.096 85.306C106.701 85.306 107.201 84.819 107.212 84.22V84.226V84.22L107.684 75.454L107.212 53.616C107.204 53.3253 107.083 53.0493 106.874 52.8465C106.666 52.6437 106.387 52.5301 106.096 52.53C105.489 52.53 104.988 53.017 104.979 53.617L104.558 75.447L104.978 84.225C104.988 84.819 105.49 85.306 106.096 85.306V85.306ZM98.701 85.272C98.9531 85.2731 99.1955 85.1753 99.3761 84.9995C99.5568 84.8237 99.6612 84.584 99.667 84.332V84.338L100.24 75.451L99.666 56.405C99.6605 56.1529 99.5561 55.9131 99.3754 55.7373C99.1947 55.5614 98.9521 55.4636 98.7 55.465C98.4472 55.4621 98.2035 55.5593 98.0222 55.7354C97.8408 55.9115 97.7365 56.1522 97.732 56.405L97.222 75.452L97.733 84.337C97.7388 84.5889 97.8437 84.8284 98.0249 85.0034C98.2061 85.1784 98.4491 85.275 98.701 85.272V85.272ZM80.706 85.189C80.8582 85.1874 81.0041 85.1277 81.1138 85.0221C81.2234 84.9165 81.2886 84.7731 81.296 84.621L82.128 75.441L81.296 66.708C81.2888 66.5561 81.2236 66.4126 81.1139 66.3073C81.0041 66.202 80.8581 66.1429 80.706 66.142C80.553 66.1424 80.406 66.2019 80.2959 66.3082C80.1857 66.4144 80.1209 66.5591 80.115 66.712L79.383 75.441L80.115 84.621C80.135 84.944 80.388 85.189 80.705 85.189H80.706ZM73.706 84.686C73.936 84.686 74.121 84.509 74.147 84.266L75.081 75.439L74.148 66.279C74.121 66.035 73.935 65.858 73.706 65.858C73.475 65.858 73.289 66.035 73.266 66.279L72.444 75.439L73.265 84.263C73.2709 84.3766 73.3199 84.4836 73.402 84.5622C73.4842 84.6409 73.5933 84.6851 73.707 84.686H73.706ZM102.385 56.088C101.812 56.088 101.353 56.532 101.342 57.102L100.876 75.452L101.342 84.282C101.348 84.5534 101.461 84.8115 101.656 85.0001C101.852 85.1887 102.114 85.2925 102.385 85.289C102.957 85.289 103.413 84.846 103.426 84.276V84.284L103.948 75.454L103.425 57.1C103.42 56.8282 103.307 56.5695 103.113 56.38C102.918 56.1905 102.656 56.0856 102.384 56.088H102.385ZM87.819 85.282C88.011 85.2806 88.1951 85.2054 88.333 85.0718C88.471 84.9383 88.5523 84.7568 88.56 84.565L89.287 75.447L88.56 57.996C88.5525 57.804 88.4714 57.6222 88.3334 57.4885C88.1954 57.3548 88.0112 57.2794 87.819 57.278C87.419 57.278 87.094 57.594 87.077 57.996L86.433 75.446L87.078 84.568C87.0852 84.7597 87.1665 84.9412 87.3046 85.0743C87.4428 85.2074 87.6271 85.2819 87.819 85.282V85.282ZM95.935 84.422V84.417L96.56 75.45L95.935 55.904C95.9287 55.6721 95.8322 55.4519 95.666 55.2901C95.4998 55.1284 95.2769 55.0379 95.045 55.038C94.8124 55.0364 94.5885 55.1263 94.4216 55.2883C94.2547 55.4503 94.1582 55.6715 94.153 55.904L93.6 75.449L94.155 84.42C94.168 84.901 94.56 85.28 95.045 85.28C95.53 85.28 95.92 84.901 95.936 84.418V84.421L95.935 84.422ZM143.177 64.182C141.741 64.1809 140.319 64.4601 138.99 65.004C138.13 55.474 129.948 48 119.97 48C117.528 48 115.148 48.47 113.046 49.264C112.229 49.572 112.011 49.89 112.004 50.507V84.063C112.013 84.711 112.526 85.249 113.173 85.313C113.2 85.316 142.983 85.331 143.176 85.331C149.153 85.33 154 80.597 154 74.757C154 68.917 149.154 64.183 143.177 64.183V64.182ZM109.79 50.478C109.479 50.4771 109.179 50.5983 108.956 50.8155C108.733 51.0328 108.604 51.3288 108.597 51.64L108.108 75.458L108.598 84.102C108.606 84.734 109.14 85.254 109.79 85.254C110.101 85.2546 110.4 85.1336 110.622 84.9168C110.845 84.7001 110.974 84.4047 110.982 84.094V84.104L111.512 75.458L110.982 51.638C110.974 51.3273 110.845 51.0319 110.622 50.8152C110.4 50.5984 110.101 50.4774 109.79 50.478V50.478ZM74.741 92.052C73.461 91.758 73.114 91.602 73.114 91.106C73.114 90.756 73.403 90.395 74.268 90.395C75.007 90.395 75.584 90.688 76.103 91.206L77.268 90.103C76.506 89.325 75.583 88.863 74.326 88.863C72.733 88.863 71.441 89.743 71.441 91.174C71.441 92.729 72.481 93.191 73.968 93.529C75.491 93.866 75.768 94.093 75.768 94.6C75.768 95.197 75.316 95.457 74.361 95.457C73.587 95.457 72.861 95.198 72.295 94.554L71.129 95.569C71.741 96.449 72.92 97 74.268 97C76.473 97 77.442 95.986 77.442 94.487C77.442 92.773 76.022 92.345 74.741 92.052ZM82.174 88.863C79.971 88.863 78.667 90.531 78.667 92.932C78.667 95.332 79.97 96.999 82.174 96.999C84.377 96.999 85.682 95.332 85.682 92.932C85.682 90.531 84.377 88.863 82.174 88.863ZM82.174 95.434C80.871 95.434 80.327 94.34 80.327 92.932C80.327 91.524 80.87 90.43 82.174 90.43C83.479 90.43 84.02 91.524 84.02 92.932C84.02 94.34 83.479 95.434 82.174 95.434ZM92.202 93.417C92.202 94.679 91.566 95.457 90.54 95.457C89.513 95.457 88.89 94.657 88.89 93.395V88.986H87.274V93.416C87.274 95.715 88.59 97 90.54 97C92.593 97 93.817 95.68 93.817 93.395V88.986H92.202V93.416V93.417ZM100.785 92.323C100.785 92.763 100.808 93.754 100.808 94.047C100.704 93.844 100.439 93.45 100.243 93.157L97.38 88.985H95.835V96.876H97.428V93.404C97.428 92.964 97.405 91.973 97.405 91.68C97.508 91.882 97.775 92.277 97.97 92.571L100.936 96.876H102.378V88.986H100.785V92.323ZM106.982 88.986H104.455V96.877H106.865C108.942 96.877 110.997 95.704 110.997 92.932C110.997 90.045 109.289 88.986 106.981 88.986H106.982ZM106.865 95.344H106.07V90.52H106.924C108.632 90.52 109.336 91.32 109.336 92.932C109.336 94.375 108.562 95.344 106.865 95.344V95.344ZM115.993 90.429C116.72 90.429 117.182 90.745 117.47 91.286L118.97 90.61C118.462 89.585 117.538 88.863 116.016 88.863C113.906 88.863 112.428 90.531 112.428 92.932C112.428 95.422 113.846 96.999 115.958 96.999C117.424 96.999 118.393 96.334 118.947 95.219L117.586 94.429C117.159 95.129 116.731 95.433 116.004 95.433C114.793 95.433 114.089 94.35 114.089 92.932C114.088 91.467 114.783 90.429 115.993 90.429V90.429ZM121.984 88.986H120.37V96.877H125.225V95.32H121.985V88.986H121.984ZM129.48 88.863C127.275 88.863 125.972 90.531 125.972 92.932C125.972 95.332 127.275 96.999 129.48 96.999C131.683 96.999 132.987 95.332 132.987 92.932C132.987 90.531 131.683 88.863 129.48 88.863V88.863ZM129.48 95.434C128.175 95.434 127.634 94.34 127.634 92.932C127.634 91.524 128.174 90.43 129.48 90.43C130.782 90.43 131.324 91.524 131.324 92.932C131.324 94.34 130.782 95.434 129.48 95.434V95.434ZM139.506 93.417C139.506 94.679 138.873 95.457 137.846 95.457C136.817 95.457 136.196 94.657 136.196 93.395V88.986H134.58V93.416C134.58 95.715 135.896 97 137.846 97C139.9 97 141.122 95.68 141.122 93.395V88.986H139.506V93.416V93.417ZM145.668 88.987H143.142V96.877H145.552C147.631 96.877 149.683 95.704 149.683 92.932C149.683 90.045 147.976 88.986 145.668 88.986V88.987ZM145.552 95.344H144.756V90.52H145.611C147.317 90.52 148.021 91.32 148.021 92.932C148.021 94.375 147.248 95.344 145.552 95.344V95.344Z" fill="white"/>
</svg>
