<svg width="219" height="146" viewBox="0 0 219 146" fill="none" xmlns="http://www.w3.org/2000/svg">
<path d="M63.0583 78.3596V66.5517L73.3107 72.4556L63.0583 78.3596V78.3596ZM85.9113 62.982C85.6862 62.148 85.2455 61.3877 84.6332 60.777C84.0208 60.1663 83.2584 59.7268 82.4223 59.5024C79.3448 58.6795 67.0043 58.6795 67.0043 58.6795C67.0043 58.6795 54.6642 58.6795 51.5868 59.5024C50.7506 59.7268 49.9882 60.1663 49.3759 60.777C48.7637 61.3876 48.323 62.148 48.098 62.982C47.2733 66.0514 47.2733 72.4553 47.2733 72.4553C47.2733 72.4553 47.2733 78.8599 48.098 81.9293C48.323 82.7633 48.7637 83.5237 49.3759 84.1343C49.9882 84.745 50.7506 85.1845 51.5868 85.4089C54.6642 86.2315 67.0043 86.2315 67.0043 86.2315C67.0043 86.2315 79.3448 86.2315 82.4223 85.4086C83.2584 85.1842 84.0208 84.7446 84.6332 84.134C85.2455 83.5233 85.6862 82.7629 85.9113 81.929C86.7357 78.8599 86.7357 72.4556 86.7357 72.4556C86.7357 72.4556 86.7357 66.0514 85.9113 62.982V62.982ZM108.927 81.0422C109.143 80.4798 109.252 79.5603 109.252 78.2841V72.9079C109.252 71.6697 109.143 70.7644 108.927 70.192C108.711 69.6198 108.33 69.3334 107.784 69.3334C107.257 69.3334 106.886 69.6198 106.67 70.192C106.453 70.7644 106.345 71.6693 106.345 72.9079V78.2841C106.345 79.5603 106.448 80.4798 106.656 81.0422C106.862 81.6053 107.239 81.8865 107.784 81.8865C108.33 81.8865 108.711 81.6053 108.927 81.0422ZM104.553 83.7442C103.772 83.2194 103.217 82.4029 102.888 81.2956C102.559 80.1888 102.394 78.7157 102.394 76.8764V74.3717C102.394 72.514 102.582 71.0217 102.959 69.8965C103.335 68.7706 103.923 67.9493 104.722 67.4336C105.522 66.9178 106.571 66.6592 107.869 66.6592C109.148 66.6592 110.173 66.9223 110.945 67.4478C111.716 67.9727 112.281 68.7943 112.638 69.9101C112.995 71.0269 113.175 72.514 113.175 74.3714V76.8767C113.175 78.7157 113.001 80.1937 112.653 81.3098C112.304 82.4263 111.74 83.2427 110.959 83.7585C110.178 84.2746 109.12 84.5325 107.784 84.5325C106.411 84.5325 105.334 84.2697 104.553 83.7446V83.7442ZM164.986 69.6561C164.788 69.9001 164.656 70.2989 164.591 70.8522C164.524 71.4059 164.492 72.2454 164.492 73.3712V74.6098H167.342V73.3712C167.342 72.2645 167.304 71.4247 167.229 70.8522C167.154 70.2801 167.018 69.8767 166.82 69.6422C166.622 69.4073 166.317 69.29 165.903 69.29C165.489 69.29 165.183 69.4125 164.986 69.6561V69.6561ZM164.492 76.9179V77.7904C164.492 78.8978 164.524 79.7278 164.591 80.2815C164.656 80.8352 164.792 81.2385 165 81.4919C165.207 81.7446 165.526 81.8719 165.959 81.8719C166.542 81.8719 166.942 81.6468 167.158 81.1961C167.374 80.7458 167.492 79.9954 167.511 78.9444L170.87 79.1414C170.888 79.292 170.898 79.4984 170.898 79.7602C170.898 81.3558 170.46 82.5474 169.586 83.3357C168.711 84.123 167.474 84.5176 165.875 84.5176C163.956 84.5176 162.61 83.9176 161.839 82.7162C161.067 81.5156 160.682 79.6578 160.682 77.1431V74.1313C160.682 71.5417 161.081 69.6516 161.882 68.4596C162.681 67.2683 164.05 66.6725 165.988 66.6725C167.323 66.6725 168.349 66.9165 169.064 67.4041C169.778 67.8923 170.282 68.6524 170.573 69.684C170.865 70.7162 171.011 72.1427 171.011 73.9625V76.9179H164.492V76.9179ZM95.07 76.5949L90.6393 60.6354H94.5054L96.0575 67.8693C96.4528 69.6522 96.7442 71.172 96.9323 72.4291H97.0453C97.1769 71.5284 97.4686 70.018 97.9201 67.8975L99.5287 60.6354H103.395L98.9079 76.5949V84.2513H95.07V76.5949V76.5949ZM125.749 66.9972V84.2506H122.701L122.362 82.1399H122.278C121.45 83.7349 120.208 84.5322 118.553 84.5322C117.405 84.5322 116.558 84.157 116.013 83.4063C115.467 82.656 115.194 81.4828 115.194 79.8879V66.9965H119.089V79.663C119.089 80.4328 119.174 80.9816 119.343 81.3095C119.512 81.6383 119.794 81.802 120.189 81.802C120.528 81.802 120.853 81.6993 121.163 81.4926C121.473 81.2862 121.704 81.0237 121.855 80.7046V66.9968H125.749V66.9972ZM145.725 66.9972V84.2506H142.677L142.338 82.1399H142.254C141.425 83.7349 140.184 84.5322 138.529 84.5322C137.381 84.5322 136.534 84.157 135.989 83.4063C135.443 82.656 135.17 81.4828 135.17 79.8879V66.9965H139.065V79.663C139.065 80.4328 139.149 80.9816 139.319 81.3095C139.488 81.6383 139.77 81.802 140.165 81.802C140.504 81.802 140.829 81.6993 141.139 81.4926C141.449 81.2862 141.679 81.0237 141.83 80.7046V66.9968H145.725V66.9972Z" fill="white"/>
<path d="M136.331 63.7602H132.465V84.2513H128.656V63.7602H124.789V60.6357H136.331V63.7602ZM155.044 76.7931C155.044 78.0502 154.992 79.0358 154.888 79.7485C154.785 80.462 154.611 80.9687 154.366 81.268C154.122 81.5687 153.792 81.7184 153.379 81.7184C153.068 81.7211 152.762 81.6436 152.49 81.4935C152.217 81.3435 151.996 81.1187 151.827 80.818V71.023C151.958 70.5542 152.184 70.1693 152.504 69.8689C152.824 69.5693 153.171 69.4186 153.548 69.4186C153.943 69.4186 154.249 69.5735 154.466 69.8829C154.682 70.1926 154.832 70.7133 154.917 71.4455C155.002 72.177 155.044 73.2183 155.044 74.5693V76.7931ZM158.614 69.7552C158.379 68.6673 157.997 67.879 157.471 67.3908C156.944 66.9035 156.219 66.6592 155.298 66.6592C154.583 66.6592 153.915 66.8611 153.294 67.2644C152.682 67.6584 152.185 68.2072 151.855 68.8549H151.827L151.827 59.7632H148.073V84.2506H151.29L151.686 82.6177H151.77C152.071 83.1996 152.522 83.6594 153.125 83.9973C153.727 84.3349 154.395 84.504 155.129 84.504C156.445 84.504 157.414 83.8988 158.035 82.6884C158.656 81.478 158.966 79.5878 158.966 77.0167V74.2868C158.966 72.3542 158.849 70.8435 158.614 69.7549" fill="white"/>
</svg>
