<svg width="219" height="146" viewBox="0 0 219 146" fill="none" xmlns="http://www.w3.org/2000/svg">
<g clip-path="url(#clip0_1:35)">
<path d="M57.0274 80.8884C56.2949 80.3407 56.3497 80.6145 56.2949 77.2807C56.2401 74.3713 56.2059 73.6593 56.0895 73.6319C56.0553 73.6251 55.5008 74.4945 54.8573 75.5693C53.9263 77.1164 53.6456 77.5271 53.5224 77.5408C53.3649 77.5682 53.1048 77.3834 53.1048 77.2533C53.1116 77.0616 52.1053 74.0427 52.0232 74.0153C51.9068 73.9674 51.7425 74.1248 51.1195 74.8847C50.2912 75.8978 49.8052 76.3223 49.4697 76.3223C49.2438 76.3223 49.1343 76.0827 48.9631 75.227C48.792 74.3576 48.7235 74.1317 48.6414 74.1317C48.6003 74.1317 48.4086 74.2549 48.2101 74.4055C47.4982 74.9531 46.8684 75.049 46.1564 74.7204C45.5608 74.4534 45.4924 74.3644 45.5471 74.029C45.6498 73.406 45.8141 73.317 46.4371 73.5498C47.2312 73.851 47.6761 73.7688 48.128 73.2349C48.6414 72.6393 49.0179 72.4955 49.3602 72.7625C49.4903 72.8652 49.5519 72.9953 49.5793 73.228C49.6477 73.7141 49.6819 73.7894 49.8189 73.7894C49.9352 73.7894 50.3939 73.2965 51.4892 71.9821C52.0711 71.2907 52.6051 71.0169 52.8241 71.2838C52.872 71.3386 52.9816 71.674 53.0706 72.0232C53.1527 72.3723 53.3239 72.8926 53.4471 73.1801C53.6524 73.6798 54.0084 74.2001 54.1316 74.2001C54.2069 74.2001 54.5629 73.5977 55.3296 72.1464C56.4455 70.0311 56.8836 69.2917 57.0479 69.2027C57.2464 69.0932 57.7599 69.0932 57.9584 69.1959C58.2459 69.3533 58.2528 69.4218 58.1775 72.1669C58.1364 73.6045 58.0885 75.0695 58.0611 75.4255C58.0132 76.2264 58.1022 76.2264 58.376 75.4323C58.6361 74.6862 59.8204 70.8868 60.4639 68.7304C60.7446 67.8131 61.0116 67.0327 61.0595 67.0053C61.1553 66.9437 61.4018 66.9231 61.7988 66.9437C62.8052 66.9916 62.9968 67.4092 62.7983 69.1685C62.6682 70.2912 62.5039 72.4818 62.4492 73.7894C62.4286 74.296 62.3944 74.782 62.3739 74.871C62.3191 75.1311 62.456 75.0353 62.6546 74.6656C62.7572 74.4671 62.8942 74.248 62.9558 74.1727C63.346 73.7278 64.7288 73.5292 64.8383 73.9126C64.8794 74.0564 64.8999 74.4808 64.8863 74.8505L64.8794 75.1243L64.2085 75.2544C63.8457 75.3228 63.4966 75.405 63.435 75.4392C63.3734 75.4666 63.2091 75.7336 63.0721 76.0211C62.7778 76.6372 62.5929 76.911 62.4218 77.0069C62.2712 77.0822 61.4292 76.6988 60.7857 76.2607L60.3955 75.9937L60.4365 75.4255C60.5118 74.5972 60.505 74.0495 60.4365 74.0906C60.4023 74.1111 59.8957 75.5898 59.307 77.3628C58.7183 79.1427 58.1638 80.7241 58.0816 80.8747C57.9516 81.1006 57.8899 81.1485 57.6846 81.169C57.486 81.1827 57.3628 81.1348 57.0274 80.8884Z" fill="white"/>
<path d="M109.226 80.3476C108.117 80.238 107.289 79.5329 106.892 78.3555C106.748 77.9447 106.741 77.801 106.72 73.6045L106.7 69.2712H108.343H109.986L110.006 73.1253L110.027 76.9726L110.198 77.2807C110.451 77.7393 110.842 77.9173 111.465 77.8694C111.731 77.8489 112.026 77.8078 112.135 77.7873L112.32 77.7462V78.9031V80.0669L111.69 80.1833C110.896 80.3407 109.828 80.4092 109.226 80.3476Z" fill="white"/>
<path d="M73.6624 80.2586C72.5671 79.9505 71.8278 79.2591 71.5129 78.2459C71.3486 77.7051 71.328 76.6167 71.4786 76.069C71.8072 74.8436 72.7451 74.0153 74.2238 73.6525C74.6756 73.5429 77.6946 73.1048 78.0026 73.1048C78.2628 73.1048 77.9821 72.1053 77.6124 71.7357C77.2154 71.3386 76.7704 71.2291 75.7709 71.277C74.7578 71.3249 74.08 71.5029 73.149 71.9684L72.4097 72.3381V71.1195V69.901L72.882 69.723C73.6282 69.4355 74.8467 69.1548 75.7435 69.059C78.1122 68.8125 79.9194 69.5587 80.6656 71.0853C81.138 72.0643 81.1311 71.9684 81.1585 76.2401L81.1791 80.0874H79.6319H78.0916V79.3344C78.0916 78.9237 78.0642 78.5814 78.03 78.5814C78.0026 78.5814 77.8315 78.7662 77.6467 78.9921C77.2359 79.5261 76.7362 79.8958 76.1337 80.1285C75.7367 80.286 75.5313 80.3202 74.8399 80.3339C74.2649 80.3544 73.9089 80.327 73.6624 80.2586ZM76.9005 77.842C77.277 77.6504 77.7767 77.0822 77.9205 76.6783C78.0369 76.3497 78.1532 74.9531 78.0574 74.9531C77.8794 74.9531 75.8188 75.2475 75.5929 75.3023C74.8604 75.494 74.4771 75.9184 74.4155 76.5893C74.3539 77.2396 74.6345 77.6914 75.2506 77.9447C75.5792 78.0816 76.5582 78.02 76.9005 77.842Z" fill="white"/>
<path d="M85.0743 80.2586C84.0953 79.9847 83.4039 79.4234 82.9932 78.5677C82.5208 77.575 82.5208 77.6093 82.4934 73.228L82.466 69.2712H84.109H85.7588V72.6461C85.7588 76.247 85.7794 76.4866 86.108 77.0753C86.7241 78.1912 88.5998 78.1227 89.2912 76.9589C89.6404 76.377 89.6609 76.1169 89.6609 72.5434V69.2712H91.3039H92.9469V74.6793V80.0874H91.3039H89.6609V79.2659C89.6609 78.8141 89.6335 78.4445 89.5993 78.4445C89.5651 78.4445 89.4761 78.5471 89.4008 78.6704C89.2159 78.9647 88.5998 79.5603 88.2233 79.8136C87.6346 80.2038 87.2444 80.3133 86.3065 80.3339C85.6904 80.3544 85.3481 80.3339 85.0743 80.2586Z" fill="white"/>
<path d="M97.2048 80.2243C95.6851 79.8273 94.6103 78.6498 94.138 76.8699C93.9463 76.158 93.871 75.0011 93.96 74.1317C94.2201 71.5371 95.5482 69.723 97.6087 69.1617C98.2317 68.9905 99.4776 68.9905 100.053 69.1617C100.635 69.3328 101.23 69.7299 101.545 70.1543C101.689 70.346 101.833 70.5034 101.86 70.5034C101.887 70.5034 101.915 69.0384 101.915 67.2517V64H103.558H105.201V72.0437V80.0874H103.558H101.915V79.3686C101.915 78.9716 101.901 78.6498 101.88 78.6498C101.86 78.6498 101.6 78.8894 101.312 79.1906C100.73 79.7862 100.217 80.0874 99.505 80.2586C98.8957 80.4023 97.821 80.3818 97.2048 80.2243ZM100.518 77.664C101.127 77.3834 101.661 76.6851 101.846 75.9047C101.969 75.3913 102.011 74.07 101.922 73.5566C101.771 72.6941 101.353 72.0779 100.696 71.7562C100.354 71.5919 100.224 71.5645 99.6898 71.5645C99.1559 71.5645 99.0258 71.5919 98.6835 71.7562C97.7662 72.208 97.3075 73.228 97.3007 74.8162C97.3007 75.802 97.4444 76.4044 97.8141 76.9589C98.3755 77.8078 99.5324 78.109 100.518 77.664Z" fill="white"/>
<path d="M116.311 80.2654C115.093 80.0327 114.216 79.5945 113.45 78.821C112.293 77.6572 111.848 76.3702 111.93 74.3849C111.95 73.7894 112.012 73.2965 112.108 72.9473C112.615 71.0374 113.943 69.7641 115.989 69.2233C116.585 69.0727 116.804 69.0453 117.797 69.0453C119.05 69.0453 119.536 69.1206 120.46 69.4766C122.034 70.0858 123.184 71.4961 123.52 73.228C123.657 73.9194 123.65 75.2475 123.513 75.98C123.102 78.1159 121.713 79.6014 119.59 80.1696C118.906 80.3476 117.051 80.4023 116.311 80.2654ZM118.296 77.8283C119.618 77.6161 120.254 76.5893 120.261 74.6725C120.261 73.0911 119.864 72.1943 118.974 71.7562C118.618 71.585 118.516 71.5645 117.831 71.5645C117.146 71.5645 117.044 71.5782 116.688 71.7562C115.729 72.2285 115.264 73.2075 115.264 74.7409C115.271 76.1922 115.709 77.1712 116.551 77.6161C116.736 77.712 117.468 77.8831 117.728 77.89C117.824 77.8968 118.077 77.8694 118.296 77.8283Z" fill="white"/>
<path d="M144.837 80.2517C143.379 79.8615 142.571 78.7525 142.564 77.1438C142.564 76.7878 142.599 76.3428 142.64 76.158C142.934 74.9189 143.906 74.029 145.385 73.6593C145.666 73.5908 146.651 73.4334 147.575 73.3102C148.5 73.1869 149.266 73.0774 149.28 73.0637C149.301 73.05 149.273 72.8447 149.232 72.6051C149.129 72.0574 148.876 71.6946 148.431 71.4687C148.109 71.3044 148.034 71.2907 147.13 71.2975C145.953 71.3044 145.399 71.4413 144.344 71.9684L143.605 72.3381V71.1195V69.901L144.07 69.723C145.351 69.237 147.014 68.9563 148.171 69.0247C150.341 69.1617 151.628 70.079 152.169 71.8726C152.326 72.3792 152.326 72.4613 152.354 76.2401L152.374 80.0874H150.834H149.287V79.3344C149.287 78.4513 149.239 78.4102 148.862 78.9579C148.417 79.5945 147.747 80.0395 146.925 80.2586C146.419 80.3886 145.337 80.3886 144.837 80.2517ZM148.096 77.842C148.472 77.6504 148.972 77.0822 149.116 76.6783C149.184 76.5003 149.246 76.0485 149.266 75.6446L149.307 74.9395L148.938 74.9874C146.549 75.2954 146.152 75.4118 145.816 75.9252C145.33 76.6577 145.666 77.712 146.466 77.9721C146.809 78.0816 147.788 78.0063 148.096 77.842Z" fill="white"/>
<path d="M157.433 80.2654C155.249 79.7999 153.689 78.2459 153.285 76.1375C153.162 75.4734 153.162 74.3713 153.292 73.6182C153.702 71.2907 155.304 69.6751 157.714 69.1548C158.145 69.0658 158.576 69.0316 159.418 69.0384C160.575 69.0453 161.198 69.1343 161.766 69.3876L162.02 69.4971V70.8594C162.02 71.6124 161.999 72.2149 161.972 72.2012C161.938 72.1875 161.725 72.0779 161.493 71.9547C160.137 71.2496 158.344 71.4413 157.399 72.386C157.036 72.742 156.714 73.3718 156.612 73.9194C156.461 74.7272 156.578 75.7815 156.886 76.3976C157.625 77.8352 159.637 78.2939 161.445 77.4245L162.02 77.1506V78.4445V79.7451L161.746 79.8821C161.595 79.9574 161.219 80.0874 160.911 80.1627C160.171 80.3476 158.118 80.4092 157.433 80.2654Z" fill="white"/>
<path d="M163.047 72.1122V64.0685H164.724H166.401V69.2164C166.401 73.2691 166.422 74.3439 166.483 74.2823C166.531 74.2343 167.284 73.098 168.154 71.7493L169.742 69.3054L171.707 69.2849L173.665 69.2712L173.363 69.6614C172.959 70.1954 169.886 74.2138 169.817 74.3096C169.776 74.3576 170.427 75.2954 171.522 76.8083C172.494 78.1432 173.432 79.4371 173.617 79.6972L173.945 80.1559H171.967H169.995L168.25 77.4518C167.291 75.9663 166.483 74.7478 166.456 74.7478C166.422 74.7478 166.401 75.9663 166.401 77.4518V80.1559H164.724H163.047V72.1122Z" fill="white"/>
<path d="M124.642 74.6793V69.2712H126.285H127.928V70.1269C127.928 70.5993 127.956 70.9826 127.983 70.9826C128.01 70.9826 128.086 70.8936 128.154 70.7841C128.346 70.4487 128.983 69.8668 129.441 69.5929C130.591 68.9152 131.995 68.8331 133.179 69.367C133.644 69.5861 134.267 70.2091 134.493 70.6951C134.589 70.8936 134.678 71.0511 134.699 71.0511C134.719 71.0511 134.829 70.9142 134.931 70.743C135.192 70.3391 135.849 69.7504 136.335 69.4903C137.43 68.9084 138.97 68.8605 140.086 69.367C140.586 69.5998 141.134 70.1611 141.401 70.7156C141.853 71.6535 141.846 71.633 141.873 76.069L141.9 80.0874H140.257H138.608V76.7536C138.608 73.1322 138.58 72.8378 138.245 72.2628C137.978 71.811 137.567 71.5851 136.937 71.544C136.499 71.5234 136.41 71.5371 136.075 71.7151C135.787 71.8657 135.63 72.0095 135.411 72.3312C134.931 73.05 134.911 73.2349 134.911 76.8973V80.0874H133.275H131.632L131.611 76.5824C131.584 72.7625 131.584 72.742 131.18 72.1327C130.838 71.6193 130.009 71.3934 129.27 71.6124C128.866 71.7357 128.332 72.2833 128.127 72.7967L127.963 73.2075L127.942 76.6509L127.921 80.0874H126.285H124.642V74.6793Z" fill="white"/>
<path d="M44.2259 74.2001C44 74.1111 44.0137 73.762 44.2396 73.6114C44.486 73.4471 44.9378 73.5772 44.9994 73.8304C45.0884 74.1727 44.664 74.3781 44.2259 74.2001Z" fill="white"/>
<path d="M107.836 67.4023C107.206 67.1901 106.878 66.9163 106.645 66.396C106.358 65.773 106.488 65.1501 107.008 64.6435C107.535 64.1301 108.315 63.9658 109.123 64.1985C109.774 64.3902 110.335 65.0953 110.335 65.7251C110.335 66.3686 109.924 67.0053 109.335 67.2791C108.938 67.4708 108.213 67.5255 107.836 67.4023Z" fill="white"/>
</g>
<defs>
<clipPath id="clip0_1:35">
<rect width="130" height="17.2512" fill="white" transform="translate(44 64)"/>
</clipPath>
</defs>
</svg>
