<svg width="219" height="146" viewBox="0 0 219 146" fill="none" xmlns="http://www.w3.org/2000/svg">
<path d="M109.499 49.0011C103.117 49.0011 102.317 49.0282 99.8107 49.1425C97.3094 49.2566 95.6012 49.6539 94.1064 50.2347C92.5611 50.8353 91.2506 51.6388 89.9442 52.9452C88.6377 54.2516 87.8342 55.5622 87.2337 57.1075C86.6528 58.6023 86.2555 60.3105 86.1414 62.8118C86.027 65.3182 86 66.1185 86 72.5006C86 78.8826 86.027 79.6829 86.1414 82.1893C86.2555 84.6906 86.6528 86.3988 87.2337 87.8936C87.8342 89.4389 88.6377 90.7494 89.9442 92.0559C91.2506 93.3623 92.5611 94.1658 94.1064 94.7664C95.6012 95.3472 97.3094 95.7445 99.8107 95.8586C102.317 95.9729 103.117 96 109.499 96C115.882 96 116.682 95.9729 119.188 95.8586C121.689 95.7445 123.398 95.3472 124.892 94.7664C126.438 94.1658 127.748 93.3623 129.055 92.0559C130.361 90.7494 131.165 89.4389 131.765 87.8936C132.346 86.3988 132.743 84.6906 132.857 82.1893C132.972 79.6829 132.999 78.8826 132.999 72.5006C132.999 66.1185 132.972 65.3182 132.857 62.8118C132.743 60.3105 132.346 58.6023 131.765 57.1075C131.165 55.5622 130.361 54.2516 129.055 52.9452C127.748 51.6388 126.438 50.8353 124.892 50.2347C123.398 49.6539 121.689 49.2566 119.188 49.1425C116.682 49.0282 115.882 49.0011 109.499 49.0011ZM109.499 53.2352C115.774 53.2352 116.517 53.2592 118.995 53.3723C121.286 53.4767 122.531 53.8596 123.359 54.1814C124.456 54.6077 125.238 55.1169 126.061 55.9392C126.883 56.7615 127.392 57.5444 127.819 58.6413C128.14 59.4693 128.523 60.7136 128.628 63.0048C128.741 65.4827 128.765 66.2259 128.765 72.5006C128.765 78.7752 128.741 79.5184 128.628 81.9963C128.523 84.2875 128.14 85.5318 127.819 86.3599C127.392 87.4568 126.883 88.2396 126.061 89.0618C125.238 89.8842 124.456 90.3934 123.359 90.8197C122.531 91.1415 121.286 91.5244 118.995 91.6288C116.518 91.7419 115.775 91.7659 109.499 91.7659C103.224 91.7659 102.481 91.7419 100.004 91.6288C97.7125 91.5244 96.4682 91.1415 95.6401 90.8197C94.5432 90.3934 93.7604 89.8842 92.9382 89.0618C92.1159 88.2396 91.6066 87.4568 91.1803 86.3599C90.8585 85.5318 90.4757 84.2875 90.3711 81.9963C90.2581 79.5184 90.2341 78.7752 90.2341 72.5006C90.2341 66.2259 90.2581 65.4827 90.3711 63.0048C90.4757 60.7136 90.8585 59.4693 91.1803 58.6413C91.6066 57.5444 92.1158 56.7615 92.9381 55.9393C93.7604 55.1169 94.5432 54.6077 95.6401 54.1814C96.4682 53.8596 97.7125 53.4767 100.004 53.3723C102.482 53.2592 103.225 53.2352 109.499 53.2352Z" fill="white"/>
<path d="M109.5 80.3337C105.173 80.3337 101.666 76.8267 101.666 72.5006C101.666 68.1744 105.173 64.6674 109.5 64.6674C113.826 64.6674 117.333 68.1744 117.333 72.5006C117.333 76.8267 113.826 80.3337 109.5 80.3337V80.3337ZM109.5 60.4333C102.835 60.4333 97.4322 65.8359 97.4322 72.5006C97.4322 79.1652 102.835 84.5678 109.5 84.5678C116.164 84.5678 121.567 79.1652 121.567 72.5006C121.567 65.8359 116.164 60.4333 109.5 60.4333ZM124.863 59.9565C124.863 61.5139 123.601 62.7764 122.043 62.7764C120.486 62.7764 119.224 61.5139 119.224 59.9565C119.224 58.3991 120.486 57.1365 122.043 57.1365C123.601 57.1365 124.863 58.3991 124.863 59.9565" fill="white"/>
</svg>
