<svg width="219" height="146" viewBox="0 0 219 146" fill="none" xmlns="http://www.w3.org/2000/svg">
<g clip-path="url(#clip0_1:41)">
<path d="M147.783 70.4481C148.926 70.4481 149.852 69.5137 149.852 68.361C149.852 67.2083 148.926 66.2739 147.783 66.2739C146.64 66.2739 145.714 67.2083 145.714 68.361C145.714 69.5137 146.64 70.4481 147.783 70.4481Z" fill="white"/>
<path d="M118.226 77.2607C119.241 77.2607 119.826 76.4928 119.787 75.7446C119.768 75.3509 119.729 75.0948 119.69 74.898C119.065 72.1808 116.878 70.1725 114.282 70.1725C111.197 70.1725 108.698 72.9881 108.698 76.4534C108.698 79.9189 111.197 82.7345 114.282 82.7345C116.215 82.7345 117.601 82.0256 118.596 80.9033C119.085 80.352 118.987 79.5054 118.401 79.0918C117.913 78.7572 117.308 78.8753 116.859 79.2494C116.429 79.6235 115.609 80.3717 114.282 80.3717C112.72 80.3717 111.393 79.0131 111.1 77.2213H118.226V77.2607ZM114.262 72.5549C115.668 72.5549 116.878 73.6575 117.328 75.1736H111.197C111.646 73.6378 112.857 72.5549 114.262 72.5549Z" fill="white"/>
<path d="M108.816 71.4129C108.816 70.8222 108.386 70.3496 107.839 70.2512C106.141 69.9953 104.54 70.6253 103.623 71.787V71.6295C103.623 70.901 103.037 70.4481 102.451 70.4481C101.807 70.4481 101.28 70.9797 101.28 71.6295V81.2775C101.28 81.9075 101.748 82.4589 102.373 82.4982C103.056 82.5376 103.623 82.006 103.623 81.3168V76.3353C103.623 74.1301 105.262 72.3186 107.527 72.5746C107.605 72.5746 107.683 72.5746 107.761 72.5746C108.347 72.5352 108.816 72.0232 108.816 71.4129Z" fill="white"/>
<path d="M148.954 72.6731C148.954 72.0232 148.427 71.4917 147.783 71.4917C147.139 71.4917 146.611 72.0232 146.611 72.6731C146.611 72.7124 146.611 80.9427 146.611 81.3168C146.611 81.9666 147.139 82.4982 147.783 82.4982C148.427 82.4982 148.954 81.9666 148.954 81.3168C148.954 80.9624 148.954 72.7321 148.954 72.6731Z" fill="white"/>
<path d="M131.54 66.1361C131.54 65.4863 131.013 64.9547 130.369 64.9547C129.725 64.9547 129.197 65.4863 129.197 66.1361V71.3932C128.397 70.5859 127.401 70.1921 126.21 70.1921C123.126 70.1921 120.627 73.0077 120.627 76.4732C120.627 79.9385 123.126 82.7542 126.21 82.7542C127.401 82.7542 128.417 82.3407 129.217 81.5334C129.315 82.0847 129.803 82.4982 130.369 82.4982C131.013 82.4982 131.54 81.9666 131.54 81.3168V66.1361ZM126.23 80.4111C124.434 80.4111 122.989 78.6587 122.989 76.4732C122.989 74.3073 124.434 72.5352 126.23 72.5352C128.026 72.5352 129.471 74.2876 129.471 76.4732C129.471 78.6587 128.007 80.4111 126.23 80.4111Z" fill="white"/>
<path d="M143.761 66.1361C143.761 65.4863 143.234 64.9547 142.59 64.9547C141.946 64.9547 141.419 65.4863 141.419 66.1361V71.3932C140.618 70.5859 139.623 70.1921 138.431 70.1921C135.347 70.1921 132.848 73.0077 132.848 76.4732C132.848 79.9385 135.347 82.7542 138.431 82.7542C139.623 82.7542 140.638 82.3407 141.438 81.5334C141.536 82.0847 142.024 82.4982 142.59 82.4982C143.234 82.4982 143.761 81.9666 143.761 81.3168V66.1361ZM138.431 80.4111C136.636 80.4111 135.191 78.6587 135.191 76.4732C135.191 74.3073 136.636 72.5352 138.431 72.5352C140.228 72.5352 141.672 74.2876 141.672 76.4732C141.672 78.6587 140.228 80.4111 138.431 80.4111Z" fill="white"/>
<path d="M154.889 81.3365V72.5549H155.924C156.471 72.5549 156.959 72.1414 156.998 71.5704C157.037 70.96 156.549 70.4481 155.963 70.4481H154.889V68.7941C154.889 68.1641 154.421 67.6128 153.796 67.5734C153.113 67.534 152.546 68.0656 152.546 68.7547V70.4678H151.571C151.024 70.4678 150.536 70.8812 150.496 71.4523C150.458 72.0626 150.946 72.5746 151.531 72.5746H152.527V81.3562C152.527 82.006 153.054 82.5376 153.699 82.5376C154.381 82.4982 154.889 81.9863 154.889 81.3365Z" fill="white"/>
<path d="M74.6117 73.5001C73.6746 73.5001 72.9132 74.268 72.9132 75.2131C72.9132 76.1581 73.6746 76.9458 74.6117 76.926C75.5488 76.926 76.3102 76.1581 76.3102 75.2131C76.3102 74.268 75.5488 73.5001 74.6117 73.5001Z" fill="white"/>
<path d="M78.3796 81.0215C79.0238 81.0215 81.2494 80.9428 82.4208 79.7614C82.577 79.5842 82.577 79.3085 82.4208 79.1313C82.2451 78.9541 81.9718 78.9541 81.7961 79.1313C81.0738 79.8795 79.4924 80.1355 78.3796 80.1355C77.2668 80.1355 75.705 79.8795 74.9631 79.1313C74.7874 78.9541 74.5141 78.9541 74.3384 79.1313C74.1627 79.3085 74.1627 79.5842 74.3384 79.7614C75.4902 80.9231 77.7158 81.0215 78.3796 81.0215Z" fill="white"/>
<path d="M80.41 75.2327C80.41 76.1779 81.1714 76.9458 82.1084 76.9458C83.0456 76.9458 83.8069 76.1582 83.8069 75.2327C83.8069 74.2876 83.0456 73.5197 82.1084 73.5197C81.1714 73.5197 80.41 74.2876 80.41 75.2327Z" fill="white"/>
<path fill-rule="evenodd" clip-rule="evenodd" d="M94.7201 73.5C94.7201 82.6127 87.3955 90 78.3601 90C69.3246 90 62 82.6127 62 73.5C62 64.3873 69.3246 57 78.3601 57C87.3955 57 94.7201 64.3873 94.7201 73.5ZM86.8916 71.0979C88.1996 71.0979 89.2733 72.1611 89.2733 73.5001C89.2733 74.4845 88.6876 75.3312 87.8676 75.7053C87.9067 75.9416 87.9262 76.1975 87.9262 76.4338C87.9262 80.1552 83.6508 83.148 78.3796 83.148C73.1084 83.148 68.833 80.1355 68.833 76.4338C68.833 76.1778 68.8525 75.9416 68.8915 75.7053C68.0716 75.3312 67.4859 74.5042 67.4859 73.5197C67.4859 72.2005 68.5401 71.1176 69.8677 71.1176C70.5119 71.1176 71.0976 71.3736 71.5271 71.787C73.1866 70.586 75.4707 69.8181 78.0086 69.7393L79.2191 63.9899C79.2386 63.8718 79.2972 63.7733 79.3948 63.7142C79.4729 63.6552 79.59 63.6355 79.7071 63.6552L83.6703 64.5018C83.9436 63.9308 84.5293 63.537 85.1931 63.537C86.1301 63.537 86.8916 64.3049 86.8916 65.2501C86.8916 66.1952 86.1301 66.9631 85.1931 66.9631C84.2755 66.9631 83.5336 66.2345 83.4946 65.3288L79.9414 64.5609L78.8481 69.7196C81.3471 69.8181 83.5922 70.586 85.2321 71.7674C85.6616 71.3539 86.2473 71.0979 86.8916 71.0979Z" fill="white"/>
</g>
<defs>
<clipPath id="clip0_1:41">
<rect width="95" height="33" fill="white" transform="translate(62 57)"/>
</clipPath>
</defs>
</svg>
