<svg width="219" height="146" viewBox="0 0 219 146" fill="none" xmlns="http://www.w3.org/2000/svg">
<path fill-rule="evenodd" clip-rule="evenodd" d="M123.181 50C125.472 50 127.347 51.8174 127.439 54.0863L127.443 54.2617V81.5363C127.443 83.8274 125.625 85.7021 123.356 85.7944L123.181 85.798H95.9063C93.6151 85.798 91.7405 83.9806 91.6482 81.7117L91.6446 81.5363V54.2617C91.6446 51.9705 93.462 50.0959 95.7309 50.0036L95.9063 50H123.181ZM86.8266 98.5396L87.8272 95.561H77V98.5396H80.5078V109.94H83.989V98.5396H86.8266ZM128.204 103.928C128.1 100.77 125.473 98.2404 122.249 98.2404C118.958 98.2404 116.29 100.874 116.29 104.12C116.29 107.367 118.958 110 122.249 110C125.539 110 128.207 107.367 128.207 104.12L128.204 103.928ZM116.521 95.561L115.521 98.5396H112.688V109.94H109.202V98.5396H105.694V95.561H116.521ZM91.9127 109.94V100.148H88.495V109.94H91.9127ZM96.7653 95.5726V102.315L100.211 98.8701H104.208L100.026 103.047L104.846 109.935H101.181L97.8537 105.225L96.7873 106.196V109.94H93.3592L93.3696 95.5726H96.7653ZM133.731 102.315V95.5726H130.336L130.32 109.94H133.749V106.196L134.826 105.225L138.154 109.935H141.82L136.995 103.049L141.174 98.8701H137.178L133.731 102.315ZM120.182 102.053C119.346 102.889 119.096 104.147 119.548 105.239C120.001 106.331 121.066 107.043 122.249 107.043C123.81 107.043 125.086 105.819 125.168 104.278L125.172 104.12C125.172 102.938 124.46 101.872 123.367 101.42C122.275 100.967 121.018 101.217 120.182 102.053ZM91.8688 97.2676C91.8681 96.3359 91.1124 95.5812 90.1807 95.5818C89.2491 95.5825 88.4944 96.3382 88.495 97.2699C88.495 97.7174 88.6729 98.1465 88.9896 98.4627C89.3062 98.7789 89.7356 98.9562 90.183 98.9556C91.1147 98.9549 91.8694 98.1992 91.8688 97.2676ZM110.472 55.9391H113.898L113.923 56.1429C114.332 59.1172 116.767 61.4166 119.78 61.6369V65.6173L119.581 65.6333C119.45 65.6419 119.32 65.6465 119.189 65.6471C117.034 65.6474 115.025 64.5616 113.845 62.7594V72.5928L113.842 72.8071C113.729 76.7219 110.52 79.8606 106.577 79.8606C102.564 79.8606 99.3096 76.6067 99.3096 72.5928C99.3096 68.5789 102.564 65.3249 106.577 65.3249C106.693 65.3249 106.807 65.3329 106.921 65.3408C106.956 65.3433 106.991 65.3457 107.027 65.3479V68.9294L106.729 68.892L106.577 68.8843C104.529 68.8843 102.868 70.545 102.868 72.5936C102.868 74.6422 104.529 76.303 106.577 76.303C108.626 76.303 110.436 74.6887 110.436 72.6397L110.472 55.9391Z" fill="white"/>
</svg>
