<svg width="219" height="146" viewBox="0 0 219 146" fill="none" xmlns="http://www.w3.org/2000/svg">
<path d="M81.9909 65.4667C77.8796 65.4886 76.777 67.4825 76.8245 70.2904V82.1114C76.8078 82.4088 76.9584 82.4377 77.1222 82.4412H80.1405C80.3008 82.4237 80.3977 82.3298 80.4065 82.1368V77.0123C80.4091 76.75 80.535 76.6482 80.7438 76.6491H81.8729C82.0217 76.6474 82.1151 76.7386 82.1935 76.886L85.2514 82.1026C85.3747 82.3079 85.5561 82.3939 85.7604 82.4325H88.8571C89.0473 82.4211 89.1522 82.3404 89.1081 82.1535L85.5808 75.9298C85.5191 75.7877 85.5737 75.7333 85.6275 75.693C87.0542 74.8474 87.9658 73.6132 87.9482 70.9237C87.9684 67.8544 87.174 65.5026 82.3978 65.4702C82.2622 65.4666 82.1266 65.4651 81.9909 65.4658V65.4667ZM82.3582 68.7175C83.6115 68.7351 84.4349 69.2632 84.412 71.0772C84.3944 73.0649 83.3675 73.3491 82.2173 73.4272H80.742C80.5985 73.4211 80.4672 73.3868 80.4611 73.1061V70.4C80.4443 68.9096 81.37 68.7684 82.3582 68.7175ZM150.872 65.4421C146.762 65.4649 145.658 67.4597 145.706 70.2667V82.0877C145.69 82.3851 145.841 82.414 146.004 82.4175H149.022C149.183 82.4 149.279 82.3061 149.289 82.1132V76.9886C149.29 76.7263 149.417 76.6246 149.626 76.6254H150.754C150.903 76.6237 150.997 76.7149 151.076 76.8623L154.134 82.0789C154.257 82.2842 154.438 82.3702 154.643 82.4088H157.739C157.93 82.3974 158.034 82.3167 157.989 82.1298L154.462 75.9061C154.401 75.764 154.456 75.7097 154.51 75.6693C155.936 74.8237 156.848 73.5895 156.83 70.9C156.851 67.8307 156.056 65.4789 151.28 65.4465C151.144 65.4429 151.008 65.4414 150.872 65.4421V65.4421ZM151.24 68.6939C152.494 68.7114 153.317 69.2395 153.294 71.0535C153.277 73.0412 152.25 73.3254 151.099 73.4035H149.624C149.48 73.3974 149.349 73.3632 149.343 73.0825V70.3763C149.327 68.886 150.252 68.7447 151.24 68.6939V68.6939ZM110.661 48L107.545 53.4035C90.6846 57.314 90.2619 73.236 92.7455 79.0588L94.6937 75.6789V66.1167C94.7113 65.864 94.8302 65.7088 95.0989 65.6956H97.9657C98.1858 65.7088 98.3505 65.7965 98.3505 66.1105V69.336L105.883 56.2702L106.496 56.6518L111.245 48.364L110.661 48Z" fill="white"/>
<path d="M110.471 56.3123C109.138 56.2958 107.807 56.4095 106.496 56.6518L98.3496 70.7404V82.0833C98.3188 82.2798 98.2237 82.4079 98.0299 82.429H95.039C94.8161 82.436 94.6946 82.3184 94.6928 82.0553V77.064L91.7891 82.086C93.6043 87.2404 96.5803 89.8912 99.7377 92.1483L96.5547 97.629L97.151 98L101.974 89.6772L101.352 89.2904L105.919 81.3605C105.214 80.6982 104.805 79.707 104.754 78.3149V66.1386C104.79 65.9509 104.787 65.7465 105.102 65.6895H108.018C108.254 65.7158 108.401 65.8351 108.406 66.1088V77.0395L119.077 58.5088C116.381 57.1342 113.524 56.3597 110.471 56.3123ZM121.326 56.05L108.501 78.336C108.659 78.8649 109.048 79.1597 109.925 79.1807H113.866C114.138 79.1991 114.294 79.3421 114.299 79.6474V82.0088C114.276 82.2921 114.135 82.4211 113.905 82.4333H109.693C108.408 82.4711 107.329 82.2798 106.509 81.7982L101.974 89.6772C105.477 91.5061 109.546 92.3509 114.584 91.5061L119.978 82.1605C118.508 81.6351 117.629 80.4483 117.552 78.364V66.1868C117.588 65.9991 117.585 65.7956 117.901 65.7377H120.816C121.051 65.764 121.199 65.8833 121.205 66.157V77.5597C121.206 78.2667 121.324 78.7667 121.787 79.0272L127.723 68.7421L128.316 69.1123L133.085 60.8281L132.489 60.4561L129.228 66.0877C127.699 61.779 125.029 58.4649 121.326 56.05V56.05ZM128.316 69.1123L122.489 79.2158C122.564 79.2228 122.642 79.2272 122.725 79.229H126.666C126.937 79.2474 127.093 79.3904 127.098 79.6956V82.057C127.076 82.3412 126.934 82.4693 126.705 82.4816H122.492C121.886 82.5056 121.279 82.4603 120.683 82.3465L113.479 94.8377C121.228 93.8333 133.182 84.064 128.317 69.1123H128.316ZM62 66.1035V68.6C62.0021 68.6505 62.01 68.7005 62.0238 68.7491C62.037 68.793 62.0572 68.836 62.0863 68.8719C62.1154 68.9079 62.1524 68.9377 62.199 68.9579C62.2516 68.9798 62.3077 68.9917 62.3646 68.993H65.6313H65.6304C65.6559 68.993 65.6779 68.9974 65.6973 69.0044C65.7149 69.0107 65.7309 69.0209 65.744 69.0342C65.7583 69.0492 65.7691 69.0672 65.7757 69.0868C65.7845 69.1079 65.7898 69.1351 65.7924 69.1693V69.1667V81.9833C65.7924 82.0509 65.7995 82.1149 65.8145 82.1746C65.8294 82.2342 65.8532 82.2886 65.8893 82.3351C65.9275 82.3833 65.9775 82.4208 66.0346 82.4439C66.0945 82.4693 66.1685 82.4833 66.2566 82.4851H68.9798C69.0416 82.4845 69.103 82.475 69.1621 82.457C69.217 82.4398 69.2673 82.4104 69.3092 82.3711C69.3535 82.3278 69.3867 82.2745 69.4061 82.2158C69.4296 82.1424 69.441 82.0656 69.4396 81.9886V69.2325V69.2333C69.4401 69.1938 69.446 69.1546 69.4572 69.1167C69.4662 69.0869 69.4815 69.0594 69.5021 69.036C69.5219 69.0143 69.5467 68.9977 69.5743 68.9877C69.6091 68.9755 69.6458 68.9696 69.6826 68.9702H72.774H72.7723C72.8448 68.9733 72.9172 68.9635 72.9863 68.9412C73.0446 68.9218 73.0968 68.8877 73.1378 68.8421C73.1787 68.7948 73.208 68.7387 73.2232 68.6781C73.2409 68.607 73.248 68.5337 73.2443 68.4605V68.4623V66.1798V66.1807C73.2486 66.1007 73.2388 66.0205 73.2153 65.9439C73.2055 65.9133 73.1918 65.8842 73.1748 65.857C73.1438 65.8091 73.1003 65.7705 73.0488 65.7456C73.024 65.7337 72.998 65.7243 72.9713 65.7175C72.9143 65.7035 72.8557 65.6964 72.7969 65.6965H62.3999C62.3501 65.6982 62.3008 65.7055 62.2528 65.7184C62.2064 65.7309 62.1631 65.753 62.1259 65.7833C62.0853 65.8164 62.0542 65.8597 62.0361 65.9088C62.0132 65.9706 62.0012 66.0359 62.0009 66.1018L62 66.1044V66.1035ZM62.0661 66.1456V68.5982V68.5965C62.0677 68.6407 62.0745 68.6846 62.0863 68.7272C62.0978 68.7649 62.1136 68.7974 62.1365 68.8263C62.1601 68.8551 62.1903 68.8776 62.2246 68.8921C62.2698 68.9109 62.3182 68.921 62.3673 68.9219H62.3664H65.6313C65.6621 68.9228 65.6912 68.9272 65.7185 68.9377C65.7449 68.9465 65.7687 68.9614 65.7889 68.9825C65.8103 69.0045 65.8269 69.0308 65.8374 69.0597C65.8492 69.0936 65.8561 69.129 65.8576 69.1649V81.9825C65.8585 82.0465 65.8647 82.1044 65.8779 82.1561C65.8911 82.207 65.9105 82.2518 65.9395 82.2877C65.9706 82.3274 66.0116 82.3583 66.0584 82.3772C66.1218 82.4019 66.1894 82.4144 66.2575 82.414H68.9789H68.9772C69.033 82.4131 69.0885 82.4042 69.1419 82.3877C69.1874 82.3737 69.2293 82.3498 69.2643 82.3175C69.3006 82.2821 69.3278 82.2385 69.3436 82.1904C69.3644 82.1252 69.3746 82.057 69.3735 81.9886V69.2307C69.3742 69.1841 69.3813 69.1377 69.3946 69.093C69.4064 69.0535 69.4266 69.0171 69.4537 68.986C69.4804 68.9565 69.514 68.9339 69.5514 68.9202C69.5931 68.9049 69.6373 68.8975 69.6818 68.8982H72.7731C72.8381 68.9015 72.9031 68.8932 72.9651 68.8737C73.0138 68.8578 73.0573 68.8294 73.0913 68.7914C73.1254 68.7533 73.1487 68.707 73.1589 68.657C73.1745 68.5933 73.1807 68.5277 73.1774 68.4623V66.179C73.1816 66.1079 73.1733 66.0366 73.1527 65.9684C73.145 65.9437 73.134 65.9201 73.1201 65.8982C73.0957 65.8604 73.0613 65.8301 73.0206 65.8105C72.9995 65.8003 72.9774 65.7924 72.9546 65.7868C72.9024 65.774 72.8489 65.7676 72.7952 65.7675H62.4016H62.4025C62.3575 65.7691 62.3129 65.7759 62.2695 65.7877C62.2316 65.7975 62.1962 65.8151 62.1656 65.8395C62.1509 65.8518 62.1379 65.866 62.1268 65.8816C62.1143 65.899 62.104 65.9178 62.096 65.9377C62.0764 65.9911 62.0663 66.0475 62.0661 66.1044V66.1254V66.1044V66.1456ZM142.092 68.3088V65.9053C142.102 65.5851 141.944 65.4553 141.674 65.4535H137.414C134.992 65.5202 133.005 66.229 132.902 69.714V77.9649C133.105 81.8219 135.576 82.2193 138.311 82.2105H141.771C141.97 82.1842 142.075 82.064 142.097 81.8579V79.4123C142.085 79.1518 141.974 78.9868 141.701 78.9851H138.257C137.266 78.9939 136.408 78.8167 136.449 77.3798V75.6816C136.456 75.5307 136.515 75.4123 136.721 75.3886H140.451C140.599 75.3675 140.756 75.3395 140.775 75.0377V72.4763C140.771 72.2886 140.7 72.15 140.475 72.1518H136.682C136.566 72.1483 136.49 72.0868 136.478 71.9316V70.3123C136.446 68.9351 137.319 68.7044 138.4 68.7333H141.704C141.917 68.7298 142.098 68.6746 142.091 68.3088H142.092Z" fill="white"/>
</svg>
