<svg xmlns="http://www.w3.org/2000/svg" width="219" height="146" viewBox="0 0 219 146" fill="none">
<path d="M130.433 62.0625C130.465 62.5306 130.465 62.9986 130.465 63.471C130.465 77.8637 119.608 94.4629 99.757 94.4629V94.4543C93.8928 94.4629 88.1504 92.7676 83.2137 89.5712C84.0664 89.6747 84.9234 89.7265 85.7825 89.7286C90.6423 89.7329 95.3631 88.0873 99.1864 85.0569C94.5681 84.9684 90.5183 81.9294 89.1035 77.4927C90.7213 77.8076 92.3883 77.7429 93.9761 77.3051C88.9411 76.2784 85.3187 71.8137 85.3187 66.6286C85.3187 66.5812 85.3187 66.5359 85.3187 66.4906C86.819 67.3339 88.4987 67.802 90.217 67.8537C85.4748 64.6551 84.013 58.288 86.8767 53.31C92.3562 60.1149 100.441 64.2518 109.12 64.6896C108.25 60.9065 109.438 56.9422 112.242 54.2827C116.589 50.1588 123.425 50.3702 127.511 54.7551C129.929 54.2741 132.245 53.379 134.365 52.1108C133.559 54.6322 131.873 56.7739 129.621 58.1349C131.76 57.8804 133.85 57.3024 135.818 56.4202C134.369 58.6116 132.544 60.5204 130.433 62.0625Z" fill="white"/>
</svg>