<svg width="219" height="146" viewBox="0 0 219 146" fill="none" xmlns="http://www.w3.org/2000/svg">
<path d="M64.6392 67.752L64.6366 61.0845H57V81.1024L60.8183 84.9155L71.317 84.9168V77.288H64.6392V75.3808H71.317V67.752H64.6392ZM92.3119 67.752V77.288H90.4021V67.752H82.7758V77.288H80.866V67.752H73.2268V81.1024L77.0451 84.9155L99.951 84.9168V67.752H92.3119ZM101.861 67.752H109.5V84.9155H101.863L101.861 67.752ZM101.863 61.0845H109.5V65.8576H101.861L101.863 61.0845ZM131.456 67.752L127.637 71.5702V81.1024L131.455 84.9155L142.915 84.9168V77.288H135.276V75.3808H142.915V67.752H131.456ZM158.18 67.752H152.464V61.0832H144.825V84.9168H152.451V75.3808H154.361V84.9168L162 84.9155V71.5702L158.18 67.752ZM119.049 67.752L119.045 61.0845L111.41 61.0832V81.1024L115.227 84.9155H125.727V77.2893L119.049 77.288V75.3808H125.727V67.752H119.049Z" fill="white"/>
</svg>
