<svg fill="none" xmlns="http://www.w3.org/2000/svg" viewBox="0 0 64 64">
  <path d="M0 28.8C0 18.7191 0 13.6786 1.96188 9.82817 3.6876 6.44125 6.44125 3.6876 9.82817 1.96188 13.6786 0 18.7191 0 28.8 0h6.4c10.0809 0 15.1214 0 18.9718 1.96188 3.3869 1.72572 6.1406 4.47937 7.8663 7.86629C64 13.6786 64 18.7191 64 28.8v6.4c0 10.0809 0 15.1214-1.9619 18.9718-1.7257 3.3869-4.4794 6.1406-7.8663 7.8663C50.3214 64 45.2809 64 35.2 64h-6.4c-10.0809 0-15.1214 0-18.97183-1.9619-3.38692-1.7257-6.14057-4.4794-7.86629-7.8663C0 50.3214 0 45.2809 0 35.2v-6.4Z" fill="url(#a)"/>
  <path d="M46.1858 17.8165c-3.5446-3.5446-9.2761-3.5944-12.8818-.1119l-2.6894 2.6735-.118.1329c-.4329.5533-.396 1.3554.1121 1.8665.5505.5537 1.4457.5563 1.9994.0058l2.6748-2.6593.2447-.2243c2.4914-2.1676 6.284-2.0587 8.6589.3162 2.454 2.4539 2.4884 6.4219.0775 8.9181l-4.6482 4.6479-.2505.2374c-1.2808 1.1494-2.9774 1.7343-4.7035 1.6107-1.8411-.1319-3.5342-1.0569-4.6399-2.535-.4677-.6252-1.3536-.753-1.9789-.2853-.6252.4677-.7529 1.3537-.2852 1.9789 1.597 2.135 4.0426 3.4712 6.702 3.6617 2.6595.1904 5.2705-.7836 7.1555-2.6692l4.6652-4.6652.2498-.2689c3.2455-3.6327 3.1137-9.1723-.3445-12.6305Z" fill="url(#b)"/>
  <path d="M29.5403 25.9231c-2.6594-.1905-5.2705.7835-7.1555 2.6692l-4.6651 4.6652-.2498.2688c-3.2455 3.6327-3.1137 9.1723.3445 12.6305 3.5446 3.5447 9.2761 3.5945 12.8818.112l2.6768-2.6765.1176-.1332c.4312-.5546.392-1.3565-.1176-1.8661-.5521-.5522-1.4472-.5522-1.9994 0l-2.6592 2.6592-.2444.2241c-2.4888 2.1649-6.2815 2.056-8.6563-.3188-2.454-2.454-2.4885-6.4219-.0775-8.9182l4.6482-4.6478.2505-.2374c1.2807-1.1494 2.9774-1.7344 4.7035-1.6107 1.8411.1318 3.5342 1.0568 4.6399 2.535.4676.6252 1.3536.7529 1.9788.2852.6253-.4676.753-1.3536.2853-1.9789-1.597-2.135-4.0426-3.4712-6.7021-3.6616Z" fill="url(#c)"/>
  <path d="m1.96188 54.1718.89101-.454-.89101.454Zm60.07622 0 .891.454-.891-.454Zm-7.8663 7.8663.454.891-.454-.891Zm7.8663-52.20993-.891.45403.891-.45403ZM9.82817 1.96188l-.45399-.891.45399.891ZM28.8 1h6.4v-2h-6.4v2ZM63 28.8v6.4h2v-6.4h-2ZM35.2 63h-6.4v2h6.4v-2ZM1 35.2v-6.4h-2v6.4h2ZM28.8 63c-5.057 0-8.7896-.0008-11.7409-.2419-2.9397-.2402-5.0162-.7138-6.7769-1.611l-.90802 1.782c2.08972 1.0648 4.45862 1.5721 7.52202 1.8223C19.9479 65.0008 23.776 65 28.8 65v-2ZM-1 35.2c0 5.024-.00078 8.8521.248556 11.9038.250288 3.0634.75757826 5.4323 1.822324 7.522l1.78201-.908c-.89714-1.7607-1.37079-3.8372-1.61098-6.7769C1.00078 43.9896 1 40.257 1 35.2h-2Zm11.2822 25.9471c-3.19879-1.6298-5.79946-4.2305-7.42931-7.4293l-1.78201.908c1.82159 3.5751 4.72822 6.4817 8.3033 8.3033l.90802-1.782ZM63 35.2c0 5.057-.0008 8.7896-.2419 11.7409-.2402 2.9397-.7138 5.0162-1.611 6.7769l1.782.908c1.0648-2.0897 1.5721-4.4586 1.8223-7.522C65.0008 44.0521 65 40.224 65 35.2h-2ZM35.2 65c5.024 0 8.8521.0008 11.9038-.2486 3.0634-.2502 5.4323-.7575 7.522-1.8223l-.908-1.782c-1.7607.8972-3.8372 1.3708-6.7769 1.611C43.9896 62.9992 40.257 63 35.2 63v2Zm25.9471-11.2822c-1.6298 3.1988-4.2305 5.7995-7.4293 7.4293l.908 1.782c3.5751-1.8216 6.4817-4.7282 8.3033-8.3033l-1.782-.908ZM35.2 1c5.057 0 8.7896.00078 11.7409.24191 2.9397.24019 5.0162.71384 6.7769 1.61098l.908-1.78201C52.5361.00613425 50.1672-.501156 47.1038-.751444 44.0521-1.00078 40.224-1 35.2-1v2ZM65 28.8c0-5.024.0008-8.8521-.2486-11.9038-.2502-3.0634-.7575-5.4323-1.8223-7.52202l-1.782.90802c.8972 1.7607 1.3708 3.8372 1.611 6.7769C62.9992 20.0104 63 23.743 63 28.8h2ZM53.7178 2.85289c3.1988 1.62985 5.7995 4.23052 7.4293 7.42931l1.782-.90802c-1.8216-3.57508-4.7282-6.48171-8.3033-8.3033l-.908 1.78201ZM28.8-1c-5.024 0-8.8521-.00078-11.9038.248556-3.0634.250288-5.4323.75757826-7.52202 1.822324l.90802 1.78201c1.7607-.89714 3.8372-1.37079 6.7769-1.61098C20.0104 1.00078 23.743 1 28.8 1v-2ZM1 28.8c0-5.057.00078-8.7896.24191-11.7409.24019-2.9397.71384-5.0162 1.61098-6.7769l-1.78201-.90802C.00613425 11.4639-.501156 13.8328-.751444 16.8962-1.00078 19.9479-1 23.776-1 28.8h2ZM9.37418 1.07088C5.7991 2.89247 2.89247 5.7991 1.07088 9.37418l1.78201.90802c1.62985-3.19879 4.23052-5.79946 7.42931-7.42931l-.90802-1.78201Z" fill="url(#d)"/>
  <defs>
    <linearGradient id="a" x1="54.2075" y1="85.1153" x2="96.4382" y2="21.1153" gradientUnits="userSpaceOnUse">
      <stop stop-color="#00985F"/>
      <stop offset="1" stop-color="#00FABC"/>
    </linearGradient>
    <linearGradient id="b" x1="26.9799" y1="1.863" x2=".459961" y2="34.1193" gradientUnits="userSpaceOnUse">
      <stop stop-color="#fff"/>
      <stop offset="1" stop-color="#9CFFF2"/>
    </linearGradient>
    <linearGradient id="c" x1="26.9799" y1="1.863" x2=".459961" y2="34.1193" gradientUnits="userSpaceOnUse">
      <stop stop-color="#fff"/>
      <stop offset="1" stop-color="#9CFFF2"/>
    </linearGradient>
    <linearGradient id="d" x1="63.721" y1="64" x2="63.721" y2=".557929" gradientUnits="userSpaceOnUse">
      <stop stop-color="#fff" stop-opacity=".0800918"/>
      <stop offset="1" stop-color="#fff" stop-opacity=".32"/>
    </linearGradient>
  </defs>
</svg>
