<svg xmlns="http://www.w3.org/2000/svg"
  width="63"
  height="68"
  viewBox="0 0 63 68">
  <path fill="#FE2B0D"
    d="M62.0404401,7.73498965 L54.5983437,0.292893219 C54.4108073,0.10535684 54.1564534,1.53862832e-14 53.8912369,1.73194792e-14 L1.5,0 C0.671572875,1.52179594e-16 -1.21157682e-12,0.671572875 -1.21147536e-12,1.5 L-1.21280763e-12,66.5 C-1.21270618e-12,67.3284271 0.671572875,68 1.5,68 L53.8912369,68 C54.1564534,68 54.4108073,67.8946432 54.5983437,67.7071068 L62.0404401,60.2650103 C62.2279765,60.077474 62.3333333,59.8231201 62.3333333,59.5579036 L62.3333333,39.6081325 C62.3333333,39.3429161 62.2279765,39.0885621 62.0404401,38.9010258 L57.8458906,34.7064762 C57.4553663,34.3159519 57.4553663,33.682787 57.8458906,33.2922627 L62.0404401,29.0977131 C62.2279765,28.9101767 62.3333333,28.6558228 62.3333333,28.3906063 L62.3333333,8.44209643 C62.3333333,8.17687994 62.2279765,7.92252603 62.0404401,7.73498965 Z M48.3469595,55.25 L13.9863738,55.25 C13.4340891,55.25 12.9863738,54.8022847 12.9863738,54.25 L12.9863738,29.0286535 L25.0594968,36.8980517 L21.3621209,49.2898683 C21.298958,49.50156 21.4193643,49.7243738 21.631056,49.7875368 C21.7530572,49.8239385 21.8851005,49.8000878 21.9866573,49.7233053 L31.8108979,42.2956414 L41.6461761,49.7312161 C41.8223975,49.8644414 42.0732536,49.8295861 42.2064788,49.6533647 C42.2827146,49.5525252 42.3067957,49.4215828 42.2714248,49.3002181 L39.325276,39.1913967 L48.1469595,39.1913967 C48.8097012,39.1913967 49.3469595,39.728655 49.3469595,40.3913967 L49.3469595,54.25 C49.3469595,54.8022847 48.8992442,55.25 48.3469595,55.25 Z M48.1469595,28.8016671 L35.862243,28.8016671 L32.1904795,17.7892342 C32.1206041,17.5796623 31.8940673,17.4664159 31.6844954,17.5362913 C31.5650523,17.576116 31.4713313,17.6698546 31.4315289,17.7893051 L27.762075,28.8016671 L12.9863738,28.8016671 L12.9863738,13.7499332 C12.9863738,13.1976485 13.4340891,12.7499332 13.9863738,12.7499332 L48.14759,12.7498861 C48.8103317,12.7498861 49.34759,13.2871444 49.34759,13.9498861 C49.34759,13.9499018 49.34759,13.9499175 49.34759,13.9499332 L49.3469595,27.6016671 C49.3469335,28.2643904 48.8096828,28.80162 48.1469595,28.80162 Z"/>
</svg>
